<mxfile host="Electron" agent="Mozilla/5.0 (Windows NT 10.0; Win64; x64) AppleWebKit/537.36 (KHTML, like Gecko) draw.io/26.2.15 Chrome/134.0.6998.205 Electron/35.2.1 Safari/537.36" version="26.2.15">
  <diagram name="Page-1" id="6KnQDM-ui139lijppUMm">
    <mxGraphModel dx="1032" dy="612" grid="1" gridSize="5" guides="1" tooltips="1" connect="1" arrows="1" fold="1" page="1" pageScale="1" pageWidth="2336" pageHeight="1654" math="0" shadow="0">
      <root>
        <mxCell id="0" />
        <mxCell id="1" parent="0" />
        <mxCell id="9tiRhB4PVM25RhnuYTAQ-8" value="" style="rounded=1;html=1;resizeHeight=0;arcSize=40;absoluteArcSize=1;labelBackgroundColor=none;labelBorderColor=none;textShadow=0;whiteSpace=wrap;" vertex="1" parent="1">
          <mxGeometry x="740" y="600" width="550" height="450" as="geometry" />
        </mxCell>
        <mxCell id="9tiRhB4PVM25RhnuYTAQ-11" value="User" style="sketch=0;outlineConnect=0;fontColor=#232F3E;gradientColor=none;strokeColor=#232F3E;fillColor=#ffffff;dashed=0;verticalLabelPosition=bottom;verticalAlign=top;align=center;html=1;fontSize=12;fontStyle=0;aspect=fixed;shape=mxgraph.aws4.resourceIcon;resIcon=mxgraph.aws4.user;labelBackgroundColor=none;labelBorderColor=none;textShadow=0;whiteSpace=wrap;" vertex="1" parent="1">
          <mxGeometry x="550" y="750" width="100" height="100" as="geometry" />
        </mxCell>
        <mxCell id="9tiRhB4PVM25RhnuYTAQ-12" value="&lt;p&gt;&lt;font&gt;Browser&lt;/font&gt;&lt;/p&gt;" style="text;html=1;align=center;verticalAlign=middle;rounded=0;fontFamily=Tahoma;labelBackgroundColor=none;labelBorderColor=none;textShadow=0;whiteSpace=wrap;fontStyle=1;fontSize=14;" vertex="1" parent="1">
          <mxGeometry x="985" y="605" width="60" height="40" as="geometry" />
        </mxCell>
        <mxCell id="9tiRhB4PVM25RhnuYTAQ-39" style="edgeStyle=orthogonalEdgeStyle;rounded=1;orthogonalLoop=1;jettySize=auto;html=1;curved=0;exitX=1.003;exitY=0.127;exitDx=0;exitDy=0;exitPerimeter=0;fontFamily=Tahoma;labelBackgroundColor=none;labelBorderColor=none;textShadow=0;flowAnimation=1;" edge="1" parent="1" source="9tiRhB4PVM25RhnuYTAQ-13" target="9tiRhB4PVM25RhnuYTAQ-37">
          <mxGeometry relative="1" as="geometry">
            <mxPoint x="950" y="720" as="sourcePoint" />
          </mxGeometry>
        </mxCell>
        <mxCell id="9tiRhB4PVM25RhnuYTAQ-48" style="edgeStyle=orthogonalEdgeStyle;rounded=0;orthogonalLoop=1;jettySize=auto;html=1;entryX=0.002;entryY=0.391;entryDx=0;entryDy=0;exitX=0.989;exitY=0.723;exitDx=0;exitDy=0;exitPerimeter=0;entryPerimeter=0;fontFamily=Tahoma;labelBackgroundColor=none;labelBorderColor=none;textShadow=0;flowAnimation=1;" edge="1" parent="1" target="9tiRhB4PVM25RhnuYTAQ-44">
          <mxGeometry relative="1" as="geometry">
            <mxPoint x="949.0600000000001" y="842.57" as="sourcePoint" />
            <mxPoint x="1120.93" y="842.7299999999999" as="targetPoint" />
            <Array as="points" />
          </mxGeometry>
        </mxCell>
        <mxCell id="9tiRhB4PVM25RhnuYTAQ-13" value="" style="rounded=1;html=1;arcSize=25;absoluteArcSize=1;fillColor=#dae8fc;strokeColor=#6c8ebf;fontFamily=Tahoma;labelBackgroundColor=none;labelBorderColor=none;textShadow=0;whiteSpace=wrap;" vertex="1" parent="1">
          <mxGeometry x="770" y="675" width="190" height="355" as="geometry" />
        </mxCell>
        <mxCell id="9tiRhB4PVM25RhnuYTAQ-14" value="Frontend Astro, React App" style="text;html=1;align=center;verticalAlign=middle;rounded=0;fontFamily=Tahoma;fontSize=15;labelBorderColor=none;labelBackgroundColor=none;textShadow=0;whiteSpace=wrap;" vertex="1" parent="1">
          <mxGeometry x="804.38" y="685" width="121.25" height="25" as="geometry" />
        </mxCell>
        <mxCell id="9tiRhB4PVM25RhnuYTAQ-20" value="" style="shape=image;imageAspect=0;aspect=fixed;verticalLabelPosition=bottom;verticalAlign=top;image=data:image/png,iVBORw0KGgoAAAANSUhEUgAAAMwAAADACAMAAAB/Pny7AAAAaVBMVEX///8IfqQAfKMAeaEAdp8AdJ4AcZwAbpr6/P0AbJny9/ns9Pfm7/Pf7PGpytj2+vvG3OW91uF/r8XQ4emYvc+Oucxspb6xz9wlgaZQlbSixtaGtMkAZ5W40N1BkbE7i61im7danrk8hamuPJl5AAAVIElEQVR4nO1d6Zajuq4ubEMIU5gxUGHI+z/kgSTIAzaYFLl7rbtaP3p31y6MZcuSLH0SPz//6B/9o3/0j35+grjKi7ZooiS8/WmgMI6a/DXQSVM7SEnZPyi1LGRZlD4efVr5nwxzi4v6MQ+EEJoH6sfIO3uqO+SnmMxvn6YwczP9ByNM+iI4OE41YoIxeg5hWc+BECFj9pVJqylML/br3QIhbP/2jecajnLL6t8LXg9jIfJbZ6aj/JG8iNqKKbwIO5c2NJATN2zoleiHsduPhPYohamj2BWObFLGOzNxs5w6qk1hu2PX8fc3J67127JMhKAy2VJvMyvbCzIR6aNvcxNviBi/OzSNdUOETa86cSvCVv5dXpJeFA6EnjpNtTt9q1Rtt6gmSgFbD4TQV7nJBF6Q7UyCT6dD71zs1QQRrivFCIOFV5MmzsUh00D2xRH2DNmKEc4ib+CmjB2Uxr43kx/e2/4qq9nJ9JTS5rg5lVnBztUqoyx4DhQkLb1wv4HIUcNlTgU3XUKlVXOrzibSTAlN+F8JevHATabW6RtJ82U1tzuo+xYvdwpvwbhQ/IKX90hceXRNYW3d6lfcO2w9UtXKJz0zQLj9Di9+CeuKHxpddasGKm6P0719k6C8SrtWNxr9HQzADeq/43reYdFxv+E83UuRHWzfJ4/AjTvB3mNr0LEykTuwdUu/YW38kQAvWhvynElVYlHptcGtofyPMK6jTSfBrw1f9iEly2Ihumeag6jjTzrCQyrwYtN8T3gyOJ+4PX9rbmxjyl1H0g1bIu4EJ3joWhr4xNGyHLg7/0IQOHAkTfb9FlPHUhLBd5PbF1MC5HzLmcNKpYZPlL8qXi61oR28L2qElKffBt43QQs9jHc9xivPBZPc9ATA1iDrbDkLFiOBB/OH/FHiBXUHVFOzbI1zPzzdnZGXE4CPSPCtFWw+MhWxJ2Xd+2GSnhziWAZG+EhQyWstwQsej5hzt3y/E9OT3c3lZojrAw/5pXTLx/UR8c+XG871XJcmXHSZ05g/5Mm8zHecA9zE/ZuZS7L/yweoWqb1e2CRxpUym02g+QB+/ZYzW+Wif07pcpB/zZ+plbdj3JtbjeUuiOtTPZp6sTLU+JGR8TLdi9keYctYhaTLW/GpzPSgJU2f4M4Lwm2FGGsEm44RLbrQPtMHuD0W+2V4/t2U3WnQfCtNOLeZ9IZ7E9P3E6eqs3AZ1THTK7eCnX1EnseXD1Lh0Wyl4bXXM+80GYxqpFndxuL25R384vYG4dSIGw8EIvp87itKgBmjSVTcvAkE8mJ2bhBqjTwUYObMaOAdxMxE2uMHtweclxyzCxuijYmCWqzmqYamWqTGNmAmoEyRkYKfc8IiYpianL5uudIYK1EDAh1p4mbyMibd3xMWGsCWgYZamLHLDyeuogaSdPvCUXP7Usq/XjkcN/vHpobL5ocTVxEwY+0yk3LRyHK9jw1nbrrdwRYv4ivMWLs7EzEDQwbF0vPXtcvuSfjKzsCZITtnJmOKjPTKK5VfMnYve7fWr5wZ5iRtMxPWnPLV2NeAy4ugHcv+FW1WmdkZv+RclibM4jhJ7lUVNRNFUVVV9yTOQrDAcwxu26P4ip2JjTwAN+dvMEPd9X1P6RPFMU9q/mvfd/XAmJl0xKZLcdS/NaJsz311w6RJR8rfLGfghZTxfP5bCqbVZVFlGiUNvtnu4TpC4L5e1kIeJMU4o2g0mdodQm/ITN1W63UKDjrrZqRZIi/Oa/tikyeI5gNOFoaeCUHbcfqyEjTgrkB8Rg/pJN68oCrp5bINszjMFXGupM4z/42/AVVxOTVw1nGm+BZk97S/OnI29iSGsH0lY5PNAByw1fapIc1x8QC6MMlr7BhBLD6nSeb6tMpS+MGpAQ0INVm1vcYv6OmFRVvoyMmaRK5fpAzve3FHqAH3cZ8ThAkh9kSO49gEz8pqtjfz/5hP+fx/bEIUAULVSjxp7X3/iTIj+M/zxdjqxjQtmqhKMgXFk0vQtGnZUaSHm0l0qs38yUpT0XLKMAh8z7u52sV0f9yb5/tBkGsShSvC3XkBjaTeUFyT8uHmhNWusoZ4aIC9pR4Rovnf8Lkv8nKqBFJaT8+E0LEJwx5mgY9l7Nj0aRQ0ZU+e6FMlT46d/tFyun6OVZi92cGifd0ms5voprA15hnLF2Wg4skwT9WLi7qnsvv2fqc9sfP59rhhgxSsIIJpPbTxYsgS4AWPBy2124JigTiOH+dlTTFZb9DMTvYhOzP8ULXh/SA4hT7EXT9AhgQQ/kB87Cmo2rJXiZuNik9Awp4GfohqCRrLhAx9cIVKKBM0YVw/LlVnB9n9LlRl/ZJBYx7RIP5izISs/iDxcCtAo8kHrlHboRlEdEjWvJTKenL5JxKVr8uC+/ijUH3IBA0LS+5B0EqSN4TpcEBpJr2sTsjvEltAYlyVIR0/DQdFTNCETDYER1BvOyt2TCPpbiofFvtSev5lGYkHGoYP5kB9xsvPD/Murvw6JUvg0b67OZGcBWR3RqIW1sI6TKaRFtOD3mIZMb8D3EQ+zgdxC2JzP14wWojOI0c9FlcYm0h1IupjjLr8aVDc9i3CuGaizSCofwnTsZNus133lyODh9f7qloA4E3c7GZFIhGRSOpiUVGLbUQMA8wQGOhPiBAWOqSwUOAjQSbhFg1InNx2xsrN+SvkpNNbtgvhohQYCjhi8vEntzZk6h02OAYUJRvab4SqCmQrkcTAC3/OME75AxksIXm84MhZMJYYZlx1lDL8Z7JMZTkygluR5fwtCNn6GKJbcMZl2hYR4HqTh3cjZgj+GNcKwIwtAFB/CaFg0TFwk4FfcFuVaXhSzlsnuwyl85UAaPK18QHYS7vd0ZP6m9qb7qD4rRdSDiRvhaL0G/5Y2xqUVcTxgpw13DdjMI2n558bQVD9qOweE3Xjlk/lM4l9SQ6A9ej6NMYPTtTUtvrO8YKx4sVeC3I2exM+O7V6BzPu5pDGi4i9AYiO2V1g3hoXwHoq8KA/SvgPmfjSGE1op1qYeYImGc651kXT4/4qwhodpCvCBLMyOTXhDAldVOeg/PWUQ4DI5SKzWwdLg7DGAMYgZ5MohAD01dUfBel15Xiji85HjEEHXCIGPEaWRudzeJY1ijvikto6fCeH7AvZxiCN5x92F0tBNlVjYVmycw6KUHBrdZYk55Knqah/QpZaQXpcC6i7y53d3rF67bJeExbDmgdg3y2nCpZtx6NuLpzuRdL6MCHbymXFzNkEaBzqlecLcLxrQrbSKrktLE8H0yF6z2JypeHuIMQeAu66uKFAXQYCh2VRe8t8Fna9N+rcLYtYITg/Wwlh7pjb/NZwDuOmYw1bC7zgXsl1vsHLrKKUc2xXDxG9lM3cQ+0D7pg4eWxjtku8sgeSXqcGoMVU/j2BNAWYweqpHQxwBQ84bBo5cLiHJx2l15FRdWI4AdBsjVqYU3lrbNVv8Q+AcWJ5gg5U/N7trZJe5yg3JttLV2i25iblsOy9UsCsXx0u0MvI2nn4xxUlgSiLnNz98L4UJFuoFR90diNk6UoPVYvyMMiDpIL1UN/Dfb1ahq1R+6aesDW43k1lAtqCLJsIqUNn/+4b8OVKmrtRaJDx1FjOgt+ai0HdDFi+pdR2gB8YhHE5fxRpamkSpR8jkl0otXPA7SmiBnFYCA+h179vA9xTDJip2EzJoN7J3CBnqCkkczk9aJsgbOG2+w7beVAMYZI69MDBQ1j9+25qkKzEmrqgjAMSmtzFIdn6ZgZueY4R3KaAssBBPR93VTajYkbjNjETheX6eyWFEjPeMWZYPFtT2PMnZhhkTbd3hsyYiRm7xBH1rcxMzDTbmrFsD/lEzI4pgIgpAN3qNgYpcaK+NfELYZsUATaSAmAFROqriUiUV82aa5aRala+K+RDfJ+o5h+4FRkYzZA3mkSdkA0N8E6adRA8VIPaDBeM5hI/A6S/QTFEKdgQtVj746fuTCBmIDpzdwYgqYAeRGjzyYk8KswJj0pHc//QaGympAfVPrnwwLJs7F4FjuHuxjbSmqvvDNn23Wx2z5WK05dcB3sPzgxBCcTQ4yzbs3c5k8sV1e7crd3ZGqwucpbhRui6Mx24zXGXsxucWF38702Ka7N6a/rtrUHKjQmp/Hs7EGAAwgsCyZSIJkT3pmINAVHvZb6JjSODUi+n69E3e+hkNfMWuCPos5DeVp8XaG+E2Bpe1Qqt3OAGP5TvYNvOhnc2klhcHxxRqzJAzhaYB84bScudIGBYa30aTZ7YhQOAa3Bmid7DcgvGi+iTBhzQQh/SzCHwkTCLoAvP1rqGIL1akmGlLCfxFtOM9BX7LHSOekk67lxtm64Vi88HzsvdwHl5VUmaXasjQAxdMmNwQLdrXZqWSwPInWluKVcNNqqDokzKps3zfyG4qck1+bmzEjXslJrZcSmNO5/S0MhZy1wmhb/LCTki6jL3SEg2sVuUtstNOF7Ftk2XPtH4smzXn5fxnWQTf2VCqiJJvpQaqxwJSG690oDs/rwRq8tGe8kDYtvp9DeUBDAuz9sySwOqmiEI2gUrHcqIw4MjZ4225BK086FyI5ag3bhG3eJi7Pq+G9utdq4BeFTvi06kT9C6CeV50Zj5RkidjzJ+cJU6hwkYXaM2Ca58i9AE2tR5UPCgK1ubJyj4A0ukBne3ApLNb310B1uD/9jmhoXLlnZmHKhBsCG3hO+yN/Gix4JLcJNSgJsszgOETVhvKI3jaExgy6GiTgc3aTF/F91u49TwJRiI0JQpgmxRTCzxziG0jIrIdcRFMUCoYrBjTDmHudg3TRNIAKosXtSQ3QGuqVpDtDy2ougPcHCG80QUZscgWksu2WtqET+Gi72jGsvguf7Vn/cGYDbORiXgG24n7LaJ4Ty5YJcvv6/pRDwvxga9acNBdKomFTfvpreIlAbW+HnBHu8tcz8GE23NI+dUwtASXYWuRLkEh7TIdQyDyzI27734HL7y01PDEtNCu6EECs7ufupIF2qkV8kyxbUMXSdXqDsXvQd24/4UCpyz5RBMClcnLZe4IUQPlAe57cMQpM31MjCK2q+IXRe50z8TB9IWZ2JhqvNWNRSXVH27km8YGThVqPvA2LApW3IL4Fw9AYyG6qhE36pB3Ve5S0SIIERiEPqg4yVDuUkGMEh0hQ3NJwY6jDplj3mrThuujMXnrMRhQWP+HeaxIWGUDsrYm2Pln3Y7DCJ6URQDYYL6IY2WDYrNgDcq4rJ+UKMR3tuhpsrSRwe3MnD0yMv8yFoj4J4MYfroy2j2rLkyLU3aVUsVHLgXMCCs0u6hK9NySPHHr1z8eFV/VYeN5gI6jLsizjqmXQ9VBNyuTEdWWTFS/P56g4oVnJ/SFywbN0r9sX3hPIZjPhrnnyD7ulHBjvDW/e8gBcZFp2R8F51qq05d9+Y9a06D1iBd+FowTUTnQ4oNUvvvF9uI1mVa5E2VxOti4OQeNUWall2PbOMxzy0H5gyYQaH2pO7mMu25UNt5lmSjp8Ygr59NfxjWaWNmgk4t1AYxoyU63NUAGoMceY7YpO7ffz+5hH7pM4RrP45KOq3tMX6O0aRUrCFPwnb5gUG/qwO0GOq5gMn1w7kRyPVIk4NDjDhdm4SB+7W2E3I/O9fz47ab3msg+8aEyDRgnyaB97aN32kIAncwMZV1CyeRuzh/7NWCrFenlgsdG7GdTnisr6IhbTXR+cmqYpzbSny0Se8eOl0aKWqWv9NEZ7+bzS2856XU3khocITevY2w2Imelnml/Y7Qf9p6suHnObw6Tz1bT9FX06m+6+p64HhG2iKKF32l8ZRpSzAOmIwa79UTbG4K9uwGlsSTRxCGXsy1BNu5M7DyxhOZ+aRZm6Xxp0IeS7BzsL/SrA3yAwfa6GF1z33eZ91tK//V1pP7prjiUo2qaLrHVS9cd5shfKXB4VKdYdB6kvPrFe0a+RLdjXTEQotEfqePpoGTNDLPnsiNNHm8E6b/UVPQQ+1aORi3LVWDVSw+gk1wfl85MxXMzoAZj3GDiBDhqNim4e2qozd9RZstRhMZtTjmVJqAxeSaAiuKK1X0H7aeBEq4hs1sHglXKGqZtV6C7n3faT1p1hY84luAv613ZfE/M7qgaJz1PxJUgxl+CMLNuSbnL8xDxbef3/9Q0pO+cwU43kqfs41oTuVXnEdt1/9pK332kQNjHVkKKAoeL0F2MboLQVH/qR85YJ+f2K1KAxK44UJkRFnZqR4CorenBjRAag58GGRUhqQMkNdAX/owyGefbFnHoxA5gOXw62+YGa6lxZHPDbgr1Ck6lMFJ4GM6J3+BiiHlDjzkpSI3yKzAZ6ECKvZP/nIjywkficfdCiEZgg612bvBB6gOtYA0IGjorwHLqskXUyF7V36RALa+2wnmKPnQO2Ewfyjs5D5r/QG/BPASp0bNnsS6WhgnfiJ7/fVic9BguFThnP85Pe4TdIZOwK27WmtCjiGAh1mDPVTZBwTlAuhhsuveXdcnF18Lk8lxXa3O/jTgrFsAn7//SUg3K4XeYmIu/NLFu7LGEJaHwQUmFDMQ915T1jCXvqlbttInaNu91p4MgI4PtoA1IvZBXbnPi0RBI7YTRaTwb5H4YXHSF5vrHXJtU8//auuP+KljvUa7NWKzO8tGyW0WvFqES+K61bMTcMCvr3zq+MfnOu08NKbTz+UPsztLBbSfitoNo17XtDjjePnSR6i5PrGa5lRZSaXUOr4w1eUmV1HBYURHlWbM+aqEcx1m/i1cfAWTXFRJYUFtGfliiwLvrQqEkI1L8Uy41YNThIc+33mMboKr5ThjlPme5/lBFpXWrwxOm47Oytw3dJUsJPM3DeIZouJ5YVSSq6DTT7eXjEKxThM7Fweh6c+LjG59CtGgUBNhuWYHkRnLQZBtX8TyIUy+oskWWjf60iSaMelzpWV0q0FGGr/GWY+CFf0Az+XmYYLNmNuJahfVbzo1+vP/mpfJNA+qDu4i2bTddK2zptsfhPT3r1gYgcJ2G2eCHKvQfeqHDdL0O197WRcjfYVud9032a3ZJ0ZNYHAxdIOqu+g7B9m2+sR9gYLCUbKDnd/67pkuqBuWvxdlbI38HoSU/5EKy359W+EFJJuxFzapq6OX9Wq0nui6BY02D0R2PrH1DYqL4fH67helj8djLOLPwg5ZPvdzfY40/fHo01PxmObkZUmV51EVh39cSj+Mq2hGde5qjn/0j/7RP/r/Tv8Dt80gpnj9tbUAAAAASUVORK5CYII=;imageBackground=none;fillStyle=solid;fontFamily=Tahoma;labelBackgroundColor=none;labelBorderColor=none;textShadow=0;whiteSpace=wrap;html=1;" vertex="1" parent="1">
          <mxGeometry x="827.81" y="715" width="74.38" height="70" as="geometry" />
        </mxCell>
        <mxCell id="9tiRhB4PVM25RhnuYTAQ-27" style="edgeStyle=orthogonalEdgeStyle;rounded=1;orthogonalLoop=1;jettySize=auto;html=1;exitX=1;exitY=0.5;exitDx=0;exitDy=0;dashed=1;strokeWidth=2;curved=0;entryX=0.5;entryY=0;entryDx=0;entryDy=0;fontFamily=Tahoma;labelBackgroundColor=none;labelBorderColor=none;textShadow=0;flowAnimation=1;flowAnimationTimingFunction=linear;" edge="1" parent="1" source="9tiRhB4PVM25RhnuYTAQ-23" target="9tiRhB4PVM25RhnuYTAQ-13">
          <mxGeometry relative="1" as="geometry" />
        </mxCell>
        <mxCell id="9tiRhB4PVM25RhnuYTAQ-23" value="" style="rounded=1;html=1;fillColor=#bac8d3;strokeColor=#23445d;fontFamily=Tahoma;labelBackgroundColor=none;labelBorderColor=none;textShadow=0;whiteSpace=wrap;" vertex="1" parent="1">
          <mxGeometry x="615" y="600" width="105" height="80" as="geometry" />
        </mxCell>
        <mxCell id="9tiRhB4PVM25RhnuYTAQ-25" value="" style="shape=image;verticalLabelPosition=bottom;labelBackgroundColor=none;verticalAlign=top;aspect=fixed;imageAspect=0;image=data:image/jpeg,/9j/4AAQSkZJRgABAQAAAQABAAD//gA7Q1JFQVRPUjogZ2QtanBlZyB2MS4wICh1c2luZyBJSkcgSlBFRyB2NjIpLCBxdWFsaXR5ID0gODAK/9sAhAABAQEBAQEBAgIBAgICAgIDAwICAwMEAwMDAwMEBwQFBAQFBAcGBwYGBgcGCwgICAgLDAoKCgwPDg4PExITGRkhAQEBAQEBAQECAgECAgICAgMDAgIDAwQDAwMDAwQHBAUEBAUEBwYHBgYGBwYLCAgICAsMCgoKDA8ODg8TEhMZGSH/wgARCAKKA2IDASIAAhEBAxEB/8QAHgABAAICAgMBAAAAAAAAAAAAAAoLCAkEBwIFBgP/2gAIAQEAAAAAn8AAAAAAAAAAAAAAAAAAAAAAAAAAAAAAAAAAAAAAAAAAAAAAAAAAAAAAAAAAAAAAAAAAAAAAAAAAAAAAAAAAAAAAAAAAAAAAAAAAAAAAAAAAAAAAAAAAAAAAAAAAAAAAAAAAAAAAAAAAAAAAAAAAAAAAAAAAAAAAAAAAAAAAAAAAAAAAAAAAAAAAAAAAAAAAAAAAAAAAAAAAAAADw8/DzADw8w8PMPB5vDzAHh5gAPDzAAHh5gAAAAAAAAAAAAAAAAA8PMAAAAAAAAAAAAAAAAAAAAAAAAAAAAAAAAAAAAAAAAAAAAAAAAAAAAAAAAAAAAAAAAAAAAAAAA8PMAAAAAAAAAAAAAAAAAAAAAAAAAAAAAAAAAAAAAAAAAAAAAAAAAAAAAAAAAAAAAAAAAAAAAAAA8PMAAAB4eYAAAAAAAAAAAAAAAAAAAAAAAAAAAAAAAAAAAAAAAAAAAAAAAAAAAAAAAAAAAAAAAAAAAAAAAAAAAAAAAAAAAAAADj8gAAAAAAABx+QAAAAAAAA4/IAAAAAAAAAAAAAAAAAAAAAAAAAAAAAAAAAAAAAAAAAAAAAAAAAAAAAAAAAAAAAAAAAAAAAAAAAAAARUNmu3oAAAAAAAAAAAAAAAAAdQ0rexy3h/UAjmaqm7bekAaRtGDZ5JMAAAAAABrOjUJHe00AAAAAr/oBC1jlKgGlunL+f2B3UfaQHX1LPrg9ncKb0QAAAAAARW6qtaNS3gAAAAGAFLD1I2NXS/Y4BWLw71gRPwAggV4yW/aMgAAAAAARWKq5aNS3gAAAAFWLFBFhhPIAMM6VTH7uO6izzDCalY6H7tuoc6nzuAvXmaeRgAAY/4S/bZ9/UgfN4E9d5oZHBFfqp1o1LeAAAAA0HVAnDHe11Hm+AQT67dLRtJwrCIfywOn1YlwAInuPj2W5+epJzIy9bmshdrcHXQ1ZM76kcOBJo49K7zlWz/s2jFCAFE+x0ey3NTxpQxFYqrlo1LeAAAAB87Ti6YwS8rQYA+Cpb9ans7gje6aSqdv0Gwq6jw/qEMAQfvYJz3kUSrCTyoYGOi3FkZwfa5z1gM2rd/Z/gDUG69wfrP+n6orFVctGpbwAAAAIbFZcB7q4f3fgEYmp9bqLjb3XrqefRgtS5VVQjH4SSpoGRuimCBj77a3+3yRRKsJ3T0t3HkTZ1ZM03fynes6zff0ZDdjCd4WSUvaoljwpIU0jJTRlA1x45tvnv4it1Va0alvAAAABj7Sk4fgN4lxB7QB+VSFHJWdExCI/Vzt/lvrqgpbUhi3E94RuKk5LPtKYolWE9xYiTZft/yrT4Xi13lAnGg6yrM59WdKm3/wBur9IR0KjZK0tRIrFVctGpbwAAAAV0kGIAWisuMA1QUzfxWaFyhTmYJfT3IW4+IBWDMne7Q1+8fZldjRRKsJLbtHRTVaXMtrzz9gIjlXUyZ7xDATgbFLuSK3VVrRqW8AAAANZFL58CAM5LqTvAArcoSjYFr9TMLMhDPrNwBsGu74o9WEs9JggpbtTGxa7iAQ6ax0AZwXjEVuqrWjUt4AAAAVN8ZcAE9GwnAMZ6UbFgyNutctmgGoFSFLCcDtHbZFEqwlppLEFUJGC95dnbDhrv2INDtPSkB2HAHZW3OKxVXLRqW8AAAARuak0ADsy6a2JAEKytaLGWcmfM0put/mz6Jy3dvWkL3SvYc5+IolWEtM5YoiS1cLd7aQ7GvUxVKxSQvYsbHqWHWJyp606XvDriGNpCsNdhaKxVXLRqW8AAAA+LpitWAACU7atgHy1NVqF2g3P/ANwNAlSZ1q++zBxR6uZB3PWfcUSrCWmcsUejqRY7r2ucXT2NLl2gEu3QzUi9TvvcwsUurXfNz1sFisVVy0alvAAAAIP1cQAAci3kkGAEeGoqtmZLQNF1Z9qZDZlZVSHEUSrCWmksQOjK3iJB6AZUWN8uE0f1nWowNktlJIvRWKq5aNS3gAAAMT6UzGoAAbg7k36gAhazSgHrdF+kDG7v/dbvm+gMTtZzZjliBrhjw4N/V7X5GvcIeu0Z6PsbO+t0e/P6ExV1kNlGXIAHH5A4/IBWlwuwAAWXMz8AAAAAAAAAAAAAAagqbH5IAAGV91vkkAAAAAAAAAAAAAA/KoXj6AAAJv8AY8gAAAAAAAAAAAAAPUYlAfq/J+v5B+v5fo/fMEAAAAAAAAAAAAAAAAAAAAAAAAAAAAAAOO5Dj8gAAAAPDzAAAAAAAAAAAAAAAAAAAAAAAAAAAAAAAAAAAAAAAAAAAAAAAAHH5AAAAAAAAAAAAAA4/IAAAAAAAAAAAAAAAAAAAAAAAAAAAAAAAAAAAAAAAAOPyA4/IAAAAAAAAAAAAAAAAAAAAAAAAAAAAAAAAAAA4/IDj8gAAAAAAAAAAAAAAAAAOPyAAAAAAAAAAAAAAAAAAAAAAAAAAAAAAAAAAAAAAAAAAAAAAAAAAAAADj8gcfkAAAAAAAAAABx+QAAAAAAAAAAAAAAAAAAAAAAAA4/IOPyOPyAAAAAAAAAAAAAAAAB4eYAAAAAAAAAAAAAAAAAAAAAAAAAAAAAAAAAAAAAAAAAAAAAAAAAAAAAAAAAAAAAAAAAAAAAAAAAAAAAAAAAAAAAAAAAAAAAAAAAAAAAAAAAAAAAAAAAAAAAAAAAAAAAAAAAAAAAAAAAAAAAAAAAAAAAAAAAAAAAAAAAAAAAAAAAAAAAAAAAAAAAAAAAAAAAAAAAAAAAAAAAAAAAAAAAAAAAAAAAAAAAAAAAAAAAAAAAAAAAAAAAAAAAAAAAAAAAAAAAAAAAAAAAAAAAAAB//xAAUAQEAAAAAAAAAAAAAAAAAAAAA/9oACAECEAAAAAAAAAAAAAAAAAAAAAAAAAAAAAAAAAAAAAAAAAAAAAAAAAAAAAAAAAAAAAAAAAAAAAAAAAAAAAAAAAAAAAAAAAAAAAAAAAAAAAAAAAAAAAAAAAAAAAAAAAAAAAAAAAAAAAAAAAAAAAAAAAAAAAAAAAAAAAAAAAAAAAAAAAAAAAAAAAAAAAAAAAAAAAAAAAAAAAAAAAAAAAAAAAAAAAAAAAAAAAAAAAAAAAAAAAAAAAAAAAAAAAAAAAAAAAAAAAAAAAAAAAAAAAAAAAAAAAAAAAAAAAAAAAAAAAAAAAAAAAAAAAAAAAAAAAAAAAAAAAAAAAAAAAAAAAAAAAAAAAAAAAAAAAAAAAAAAAAAAAAAAAAAAAAAAAAAAAAAAf/EABQBAQAAAAAAAAAAAAAAAAAAAAD/2gAIAQMQAAAAAAAAAAAAAAAAAAAAAAAAAAAAAAAAAAAAAAAAAAAAAAAAAAAAAAAAAAAAAAAAAAAAAAAAAAAAAAAAAAAAAAAAAAAAAAAAAAAAAAAAAAAAAAAAAAAAAAAAAAAAAAAAAAAAAAAAAAAAAAAAAAAAAAAAAAAAAAAAAAAAAAAAAAAAAAAAAAAAAAAAAAAAAAAAAAAAAAAAAAAAAAAAAAAAAAAAAAAAAAAAAAAAAAAAAAAAAAAAAAAAAAAAAAAAAAAAAAAAAAAAAAAAAAAAAAAAAAAAAAAAAAAAAAAAAAAAAAAAAAAAAAAAAAAAAAAAAAAAAAAAAAAAAAAAAAAAAAAAAAAAAAAAAAAAAAAAAAAAAAAAAAAAAAAAAAAAAAAB/8QARBAAAAUCBAIHBAYJAwQDAAAAAwQFBgcICQABAgoQEhMUGTA5WHcRGiBAFRYiIzNZGCEkJTEyQ1BgQlKgJ0FRgHB1gv/aAAgBAQABEgD/AIaXJlw5Mu85Mvi5Mvi5MscmXHky7vky7/ky+R5Mv8t//H/tpz5f+2nPl83yZf8AA+3SV2lWoNpjbcaMR5jpUqSd/BRso3JEO5/QnHT8EMgaHkl+xEkVP/yqa5tjyneI5KfLsXQU1uNRHNqawduRVySBcZrEmGWHEJrB1r57lQ0nbnXR87bddreLr691WMpLyJoT4zDGAECA16P5Be6u07gNBtGzY0Gm66O3U5EpyIuak3nZ775TP5FHzj33ymfyKPnFny+nTld6FmIggMFWZbnaHVRzLc7m8Je9p8s/JMPhuNkKzwcbwMG+otj33ymfyKPnHvvVNXkXfmLUm4Zb12uohWZDPo4dzeJo6MIqOJ0f2q63ciaVqilkGU16NVJ2kc3GnpH0V771TV5F35j33ymfyKPnFpG50yrs1M7mk5Ci1VaJIg8jbe+jP7DvDrpvSjtilpnuX9QfVFqVxOG1uuoZ1xUWl43dLj6aSYdKlE4yJ3N9e2Sn3P6EH02iBQH6/tfQKuxwdWEZUbyookTyaMVOlDAgJkti2nXZIVuOsyHpXb+Y4+lDOdC4kmGJhj+f4rjp6tRwgqTcdaQVVEdR+OU5JY0Jxq/Xk5nEAjt5sJBxUWVG6ncBfNymtyYZSVsxyxFQMdSaaTgkTOqZssXAKaxhxhOQMLb/AFsAlbIoOZyWrIwemR3x0C7Ipn+1bxDwhg/VZtcdmP4T0net6/8A2G5bXbH1uKjOXpXX8wBtSGR6FuJMyS9Ic/SrIr3dbhGU3K61g0prqjwtdV8Pq2pWvDcqJHTDkkw11V2JMTymwptjKPne2HEAqttzo5RUQlHud23a1zpmqcJTw023mAxpYURNDmC4bPK6XqFBctLTycf3gfWluJxfj3g90rNtNhsUvM9xft6wGVWpTH4bUW1nrrAq9FmV3N3p2DEB4AZM/tm8O8IIL1VbXHZj+E9J3rev/wBh3Vd07Ks+sMrE7WX+mjuHDZokMJ8Gz2um5LqC56X3e5P2tLDNrUVjdzXhRpGVflJk0xQ7gORNdicKAUPVLU+ydSjO0oxu8Ub6NczNWDaYrlcQjNcj07S3HL5aS/rTHK1VgqqIx625XJHdxqjmIJXbmvQDoXyHIuJXw3Aa0Iyt/wBI8ySs6jGnWRa6b0pFMqNnuS6opzk6RXgva1Fzu9ZNKi0YxBULSTUhLcasRoN7WqOZ2rBRMRyFuWiON7dVHkORO2tAesu3k72rCtwczobbNRjqgquMklJ5fL9pOve7za2jo0IVWLhEPFDOj8Yuj3zLQq6J0QFw6L9Gv/dEVXlKVQOYOhhVKMB6a/8AZ8jLtVdMVPoHM+6iGOyv9eFy+PaFbgnQj3E4tF1/y4ZV4K1dIRouWSrh8QjDifhANF5tB9oRVSQ3UnrBAxl7QjvxuFzthooxtQVF8klES+XOZOPy7ra4jg1rLrNwmIChnR+MWR759oNe19EDcLjDRr/8w/WLShUFqADYVTMfPQQX+l8O8W8IcP1UbPHZj+E9J3rev/2DcNXRQ7Z9CDpHRF7ICSpD6ZBYAJk2MbHEGFF1iCia+YTX8FPc7STTDNMYSC0F3UnOdorBVURzVvWtWNbhlIcOSs2c9AZNyJ3Oppnc7wW1xrdzIbtTzObntUm4EVRJPC4bUy6Vpo5rAFiF2OHUBH0xngC5AT4d2ldMDqnqlKwW0nH07GiJQH+sQnDZ52tMyRR01SO9tfej9cRYrAxWFWxTNQdEKo95RlMg1kIDT0ZbO4XvDaqJcPraBADPKxm2fvQgnVN9UNRlTDjEWJFnd2PdSzE59JjgTPG042EOXMiADBCcwYtFm4Iun0PnkoJEqXVXagAfqEaNqTc40iXDj7eZjwA0xLKB3owCqXx3W86zTTrbEQV+P5hc7HXxJSRCoq12sF0X8xeb8drBdF/MXm/G1Bneb6i7ZbpX5Al5zvle0SotlQ1mv66BRrbUjwJelWVgU0ycBF1oDVrK3ndWL9UVYhCUJtyPUX+QutSnfYu+y+eMCqtwmRiuQv8AT210vSzPFoSnNzvWRl92uE6rOnQbXuF2LcjUbW2TK000n2yjK5f2aB2nW1uKbptbh9VBOVEnmA2x8/ZoaiqqqSyonDZw+OZMjic4pnhDNR8804OYJYj+aXSy1XRr5uv29N39WRCSoiIc6NgpLDU9ugMRfoor6pSuFRKnPSKZUKuVMy16NKmU41e1oUz0JQ+rvmT5UT2q3ymXRhC3Dt4hU1LCgsINPjIAjdt6OcIJ3TlVLUhVA4xFaRZ4dr4P6hOfIfgTNmk4wCMAZ1gjBa+YIWi/cBXUqIDaaEg1NqjqbwH87StSbnqjy4EebbKe4AcSycbyDATiHHeHeEEF6qtrjsx/Cek71vX/AJ9dcCO1UNXUlJRBIkU8sKZPHr49y1WuhV5P53lVE19RUDmRI6I/FtNLpAdKdVpqEna5ugYsvHwNCCJ3MkxuyZhjt7NVxN8BZQHKmGktbTLsNvx820K3Zdi9TzMGEomY6+zlfBM4cTzIIwI+sEcITmCE2+10Qnc5oQZ55cXchpKYvRIMi6ON+a5wQth0HvVwJqkDpkJ2ZCoUcE1RXU15SUThxRGNHDQwgxgxi2ZQZI1x6s6H4pQ8zAISyb6ZzK8ORJH8ExRHbMazfBTG61EcsmIadctuKQjbDpbeUkvVRyEzDyzKthtXBbhVS9yWf19+yU+9R8yJ0gaEifEGLmFry1ac/tY21m4icLzXGPTvPD4EOnzfREoykHhvJvCTbXrCgcbPV0hj2pdurKL5NJwSo61eZl9IYLbqSqcnCreZ3o/pDkU653S4DWoU+pcNqZ4HtMn/AN28OG5L3DK7Tkpu+n2Cnn1N69HqBkZ+nTh1SNmhhzWsYccTnFE+KiSu+o63tOjTkGMnsMjrJHXyHSlqi57C91SlpBfzT0aE5WK8pJ7NLFyS4RCFs2lx8SW+D+oUIp+yoSDcMuPVP3LJ7Wn5IzvEHEz6YFBQPi0Z5hifZxtstxEvrK6wKdZ4fYh4Q+OEnRjIPDeHeEEF6qtrjsx/Cek71vX/AJ/dxXSdNN1OCXADScnQPOVU7p3cL8aapnkg+TNFTApYwXEDGLmLCNz0pc+oQZq6pqwQsitDIJCkUt3O6Ata/p40Unnw2W7mPJMQhGlRJD4WLbmSjbBrvYjoPmxfqC59YSFIxJGWkxxJKYoEVAE4UNlgjBYzg6pEkwiaMmDmgAsAFzDD3+rnRy53Xc8FlKWdY0bsjMZBjkvw2r1rTKiqjnRKTpbnRSJMZQqd0aefLG4oudK9x+vt7hJLj1mI0jYyaQGGU4WlNtdV3cxQ0N6rCppjCKjf2yjpgfaYWeIqRiYbhi90ySf0fjKLq20Fk13JowGuiFNI/wCwzXbswo6PoSysU7zmppitoBFzDZVQ9OE10rS47GNIUbH2q6kM1qCUknBE6eTzZYyAb1gGABecIXb13MTty+gFoKi6s6DUhsQbJvP3hvJvCTbXrCgcXVMbqdEORWxhTerJDaaksqJAtiLIDnSdFQYkyIZdjyOBfiFXPbHuPM1J66q0CzMmkOTmzObWBLUUaytTgWNp45U0XXnfpFAvi3GQLY1AMoPwmKBk81f9wR6WcjlXXkvr6opKxk+pqhoY0fP4giBZVqYlJnMliR8pOd1L5rIulI1BezFaGhAQluoudVEVSHCDE1sdnbZmyayk0IEOiYmoifxENTntNrOUsI5kJFhtzR4eFC+wpXZ9slVhbnbKy+Wkt6pVi8j98qquINgmZKlJGQWiw4uW3e5FMTlIou3IsMVU2zXW5JLkecdCSqutCyTT8VY3HVz9VuK18PNMR3BrHjKMDBxBZBbhaW23lXVzVEQ3mpqYcZRUYE+4dUC7Syz5FCQT0OGMnTJKjoD+9UXXtn7JrtThgBqHE0h9j7BiubZgRSsIK2sU9ToqIauHo5w2dUdTPOVJkwvBgyHGx9qOtCHz0HUnBY0OUMBCgi6gxdAnMGJt17nB65TQG2jThW+tSRHY4DefYuN4h4Qwfqs2uOzH8J6TvW9f+eqlqIjGkiApXkt5rWRJtMtHGUVUWuesKT676rJmlV2D6vpR2LIhgEn3FhK52fthV3s9bVFUQOOnpmCgyKWTVEisJxUyUNBjgGA+mLme4FDyEDz043J9rjs6K5VlYbjb6pGEpiG1pncdo/dMyqYpmPwK7HF072idOC1tgTG68ul6aRaRi8LtJxZAv2XyQ4Spr4bdy10NctrtbQS6g6xozjvqy9IAoBcAmXC0BBB6NAf2Qg74lVxyja1dWM9SCnrJrn1X+iG6Y4bcu1mlXOK3PY7EsQ3GcbFgFp6lkRFRm+mppFPTgCRImWBBLE+O4+tKtG4fRo8negtQLKWowSTim1zvDZ8VWqEMXMlmOhz3KjS60zZPIDG8m8JNtesKBxTSB1WOFixUqIYMDiB6C4Fljalxsz2UzpKqeaea86FAME2lxSwI6j+KWohojZZCQ3EVPB5CKVgMIMP28uWN53VaoSLWrBUSllH90R2zvpU+Bw2yNphoUH0eNKSnI1Q9UsSujlVRUP8AE2VBPlRQRwtAwIgXIKFUFs7GHMdwd6uJCl0sxIJV+iVB23RPbto8t2xx9WIphwi2iogYf0orYvVVVKVF1r2sZ/kFXWUWyjUGTm6Z4bd61mQuc1yEibmShB4zj4qEuPvQhoiM1UdJTExPLESBEsEAQI8dxlaYaFxqjl3OBDaoGctxylnFNnKXDaGVWn4RuiaGIOpcqHLjYPpgpbG8O8IIL1VbXHZj+E9J3rev/PbwC6YE/pIa9MzNc/OjtMYJXk8butptdKzqupRNwk7HD075iIkFoRhe5vJW321c+oblSPMwCYLoKB5rEfqjwabnjt2uhBWkI0lrKIoGSKsnYoQrGkygOrKFZWaJjVmotNRCHNEkOvOmteodJVDaH1oDjURl5ugVWuJ1uSRcSrDmOWHLqEDMuRR/c6Thut9bdK2kJialjHVJQMhFSRGyBbRS7X9Ccfs0wRL5vhc9i3Iyljegvo427ZcMogAvJk5JfStJnjB1YdWVMCa4CsbVQSFHwCuMCIpl+1tun/mTT3jtbbp/5k0947W26f8AmTT3jtbbp/5k0947Wm6b+ZNPeBRhBtYmvUJza9f8eFmyQTUXXW7eKsCMIH7ZfbJEYTG8m8JNtesKBx2jNvlu1S1wOyUXMhBnm3ChckeTC3wbhaQDckXnK+j4wuYnVHkElB8KEYaT6jq2aRWAeAzFIPOSm0jqAZYqCVBCBBCDC0Bh8gQfx7zWQjbZtaxgjlR9ej6zzAilTYfCDavKq6YSjlAjWpl/R6Esiga1gPtbbp/5k0947W26f+ZNPeO1tun/AJk0947W26f+ZNPeO1pum/mTT3g0bMHTA4wo+sQYTXziCYtKv49F1z638tgC69GQEvtUAXPG8Q8IYP1WbXHZj+E9J3rev/O3c7h7Ptk0QSxJp/oB1vQFmmsdJkOQHfKz9ejncK4aVV1wqZpRW1Puretakk29Kv4clhs6hBDbbUeZTTKe51jepyF4xkFor+lTa7wSCqqim+53eNrbKIJlQ6kWigcjaf5oMhIgXAncYqaJW+FimzQ8v+mht7BOYQrw2jdrf9IiolVqBeDd52hFh/oGaFw3riCombe1LyjkD9wTmMIAXu7UzcPu65vb0IFvxhprZWNH8Mbybwk216woHHZeMhORLZ05L2QWjri5Mh8IUX4L6SCdbF3y4aAKGJo1Cygrm8uFpN2JbEuiW9VY8JnoJlJjaHWxO43qqCbPW36dj4QfOCnzSQ0GO7toIKi6bi9BSeVB5zJuZWXoB4bxDwhg/VZtcdmP4T0net6/87ucrpWm4DW2pNBsuDrMZRIIaSW+L3mz2ul5t5fc9Lzwcn7EpCG1qKxO5q/pgiytOmuZYueKb1puvJHEImsVj0tSnRRUvM0VvNN6BeZ6yISM6+NLdOco1d1DRDGbOStRxyPRZBTUwOh6keMqFaVIaitnk/3Q0UgIrmc4bmum5QqPs51O6CCf1hTY2og7yGjht3Ei3NKtZxiMqjYLRHMlSEVAKsZb93CsneQZt493CsneQZt493CsneQZt493CsneQZt493CsneQZt493HsneQZuY93CsneQZt4hSxfaop1lZjPhmUaISC6m4fyPIitjeTeEm2vWFA47NjwlnZ6yr/wAO7ap8OQ5d4fzk6nr0EJNaSAvlRMJK2qICsmniZ8QsaJmAhipi17XE0rilEMFyolHANZ1XSAQHOQ+B0XQaFI/q/MQKt1FoiDJ2aWnntCHw3KtOJqpezvVcVIp+sZVZ5Yo608Pht6SFueR619Ea1GwohuVCkMqCRZy17uPZO8gzcx7uFZO8gzbx7uFZO8gzbx7uFZO8gzbx7uFZO8gzbx7uFZO8gzbx7uFZO8gzbxDdie1BT/KbEezRoxQEJ0No+CeRFfG8O8IIL1VbXHZj+E9J3rev/Obly6VnbyobUUBtOHqsoSqEbRWx30SSk+4QlBgPNruEdJcbXViqohKVrivdiXJqLoglRH6AA2qk8iztSO53eVrbKboNQKi2igcznjwp1N+FuO0BtaCR9GzkqaeDd5F14Aio8Zg8XY02+9Gu40ZTSy51KWCIxNUI3VaCnZbcrjmeMD5cbWmJ5/M4z1LBY0OUMBCgi6gxdAnMGJZn3ZSE3Wi0o0qjOH/YQDCKo8wwlUXBlSTKJr8fy62nkiGP1aFPElS9FUMs9RcDzkdAaiEU08xpWvAbtiKGI13Uw6YFP6yuofSKAalO17utazqPD6S25eMnpmYOQvJ1mhS5pRvcej8NdimYiq3qACD1q7d4bybwk216woHHZreEu7/WRf8Ah3ctvlUqgoUbUqICBrNuaFDpo6oaOFlu9NNNoiY1E0VTxnPGjnHByfDFoZup0OXFWeRUoxnNHU1HUHlrPNHCoqJyCnnThxSAKlS4PSGDF3TdG0rUbtV1NOFnUkSpKYoAgIB2UpUkGb5JerxdjsOrbjcakMfW1a1vuba4LfoiC1nYcGluMweiADQLdl3KiG5szeuxnLYGtdCLdOrsVxNxHdSIrpqkngnSCiWFLHyV2q386baldU3RmdJmPoQA9rUWOo4DGGKiha9AvJr0fya7MW7HTGg0mjGVUZ1THAIBBFUeYIQqSgapllFl+PpkbLzRRsvsKPPliSZYjKGGipL7ykVDaiIUy9hlXu77s+H41bLrYlMatk7HaZ0ilzkmWxN1jWtR8oJ7flo6oTOwBRfvRKELntGFyGPtS/FkwlFkcuECIsNfhvDvCCC9VW1x2Y/hPSd63r/zb2ejUjJnOxxLa4USkJDTDSisKN4S4q6rndcsqyOOOZCbgYv0SwErvtrfdPyobrTLRw6XF0MbTCaKJpkTuXS2G0+Gw5kNWRiiklLBEYkqp16i2yv2vq65HYHRmtbPP+1ZjtRxaJt4vC5zW/E0aFAzACDkL9JvpVYbFZ8WMRoNpAQiiUgoCYVTkVP+C/bZqQLsNN4GtDEIJ0tMjQKMxFqUorkWEpDd7UdrOUG85EE6ITWUTgw5HfsWr4Cm23ysN5RC/CUALrNzwsm5k9FxOcNBfk5OikmXZWmJZzUHdKDidah/3UOFOD5qAjuao5UYtXnKlv3UpggNca3Al1wkaOYg/SKciKpSuMR6VwCY3k3hJtr1hQOOzW8Jd3+si/8ACvIiM6kRXTVBOAPET5YUqcJX/wCyu8bWlQ55bbaGdPws8z4wzRVeCcoqCQdLGSxsUsZAE5wR2ndDuUMRNBKI1f8AMycSC+yEVmGsCrCoMPlf1TcgvUP2/ZD4FwhjY4YYYWrWJrz5Q9G2IsiLlDsanZqk1q6SsqPZL0gICJi/FZyal2emYIBI6mlSyy9A5uP1+Xogk2ApMebOeLROt5yt4+ITWEbgxJGfsYr4Km3HwsICiFn90oAXWbnhVN6oHcSnDQW5OTopJmeW5lWtB94Sg4nWfy/ie4U+vOdWJMcfqEZuBypb6+kwQWwatola6kujmIP0jXIiqcoDgdMsasbw7wggvVVtcdmP4T0net6/83u+LpWqK4ibVM7QcfsX3sWDVJHMd+EMIDrD16ROXXo/hjboXRgrlFCjdAcC/wBbk2NMyiE/O63H9rbTceocXDrdbnWZPjII2tsnHRZ9Jy42ydrfs/qIkt1Olu9WkyWgyis4cviu7WJqVbsDSEVFMr9TpUTiWsFBkK4fZmr2tnrarlIENmjTWDOchGQvhoHtM12XJXUUJxhCp02j5GeQ+9LOm3zpltYEAHUoCAv2YBwOQ49uG8m8JNtesKBx2bHhLOz1lX/inyn+JapIoe7IfUfJzmargKdVVEi7RtS6mqV1VzPOCEtTlaO+k1j/AFYVUhTQlI8UNpwxY4VGEBMF/gpco6qerbkMo0YshBbea4Jy9KHZS2wsVUKKLWkmZTaa+pWKZAmUdJ43eLGlKN2NodcVyX1Sk1MLagECR7idl2v22csKWp9w6aUWmGY5SUh/DQVairluRusElF0HqCkl5GORRd9m7bxUyWtCac7VY4FIExjl+QR48N4d4QQXqq2uOzH8J6TvW9f+arTq1iuh2l+Z5TeBvLQiM9GGM6wKtql5SrHqNl6THmr9bcbzWRlE9r+Qso3J1y2BXbHT71jj62cp+xFkVPbLlbrubaErpawXUElUJBmk893Lp2yDZX77xGTfqyV/R/N5ivhTR+4UktNXSB8sZTi5ksYB6MwWqr22Voqq4c8dOUzgspaNfbFWpP2QkHqRo3rZVejsQgf6RYTY7yNzi8txlExF+x+iQkZB1vG4A41cH/WWpY2xloKlwynHv0fh5BVwPwlJtttBaSImJqWglE1PIBZAkSPGryiqmWvKKy7KlmLwHY1glcJTDR/dmLG/kSIY92Xsd+Q4jikGiWmOg2LjjIiWLdDSa46wMpipXx1l2obeteuRkWUaWGy4FUTRyZOObtlTQ46zhsyxKnZFZnP/ACElPY6vgI7+x3HUkyD/ALmRsdiuk4DrcdxnWKD/AKytNW0YtMwmdIHXOlvWUzwf2ujh2A4Wp2Zae2GHFLdZ7fJ/rBSPhUU1OVCRkqaJgmC5gLkGAqu231o+rY0qHlCmAszFsbR7BFuVtkNA6waM62RXk7EIH+mVF2PEjadYnsuMInJ/TxGGx+iYkcB1u+v9xrAP+srSxtgrQNLxxMP66ejciqxf8NTbLbbbOQkxKSEEklpyeDkASTuNWtGFM9dsU5MWV4z0O1qZKRVRzSfdl7HfkOI492Xsd+Q4jikGiSmCgKL1RlRJFobPa51ZFVjKX8zu6rpWue57Radmi4edoxkd6y9RPktotdLDneBFqnZ3OHndcZkusskT/GL2NyhDtf0JyM+gByup5qerUiR2QcTkXnmvryupq5hQU1U8MbUTvyVGNWkoUQVPwzKjOM8i2zVkE4GDSPU1GFY9OMQyezVXrLeeaMCokc/8W1jAAhja9eQejQHjcZ3Qxrk1di8CgL/W4vjbM0hsP5XaFXSdMUy84qanc4+VvPcyIqRyL/iymlpi8mKJQ2SBNEjQQoJgv2c1vfyHw1js5re/kPhrHZzW9/IfDWOzmt7+Q+GsdnNb38h8NY7Oa3v5D4ax2c1vfyHw1js57e/kShvHZz29/IlDeOzmt7+Q+GsdnNb38h8NY7Oe3v5Eobx2c1vfyHw1js5re/kPhrHZzW9/IfDWOzmt7+Q+GsdnNb38h8NY7Oe3v5Eobx2c1vfyHw1js57e/kShvHZyW9PIrD+G9QVQq1F5DVUmjCKUpWTTQJpOUf8A5b1/w/5H/Jl/lv3/AHv9D/j1f//EAFUQAAECAQYFDgcMCQQCAwAAAAMCBAUAARESEyMGEDNjcxQVFiAhJDBCQ1JTYoPUIjEyQHGFkzRBUVRydIKEkqOz00RFUGCBlaKksmFkkZRlsHW0tf/aAAgBAQATPwD/ANqSzNOF9BMGWxd8vhE4hHRLgXaSH4FhH2IkWpbPonY6pxfKqfvWrxiaMRWxPp/AiU5LQcKgra5YsB6EeV6QlZfGkslDaHlnLvGMT/MyLvc0snBsYq1bsX0wLly2qGHSMoF0WqJa+Q/8qWvkP/KlEnQXLl3CnN1q8Cw8QRfAL0dZPBQ50Fs5DDmWVfGWbJjtFpGLpPClr5D/AMqWvrD8uT+KtSsIeHIiFcjvCGJ4Ah+lf7LYORNjWj8ZKC2ptHLX1h+XLXyH/lSfuhOikIwageTltA/Ov2EAvbw2Dm/pdl7PGVe+opg1kmL/AK5A1NTm9CVr4JXlzxVuLdYWnRvB3WkqrkVE4ihKCeggyIxIJZ67wN1cvWHajyXRlmSviyFy7R8O2HwBck3h7AdsUs/ZoktdOtmD7HcZNfl8oXOKViQmuRZJ/elygHZhb2hejZiXU0iiL/ZfZO8fqaHfsFS6hIrG3VyyYdqTK9GNKl8WSqL92+JbEn/5n3EY0Lmm10gD66etfl1PDFnEpVIW4JwwfithFm7PggjuYZhjZWxP5iNFvpEkxmJyeXiUGD/U8F2nAAJkIflWELJpl35epMPGdF1E8L8s1D6GeXJ17P8AZnYu8fqaHfsEK97xPCrIvXOcQ0yAu02py5VnlolCB6Je+RdScnBWdsWGvwXzV+LOBKhJP6JclMUE+VDPPRXEZFBBE441TYk0UCdsSzFHuT+Wjc3USSS0JCI03uXzAuiJkukHVXxttMSxNFIoa5asA5w5VpRm/L4svetnC8mKaemzELyBD4g0zYk7lq6dksU0z8QfvkXKzsyRSNHvXr4umLTox1UcXG7OJs1RpSmkPCuGOTD7MBDScRYTX8eylBcImEYL/ZEN5lHI8whH/wB0gZNY2J6P7i1kbChgyKvs3BAyYOhOWy+1DwDsw2wBzZ0hpIwrhjkw+zAQsnMYE2/GlBMIWEUJ/ZELtuxd4/U0O/YCF3zQhhUuop9TGv2ihyVx9qnp25MmaabyxE8gqOONUpyzFJDIsC5esS6EtbSIqr43BCHenhaiWTGKk0CyWBc2oeMy6BQzCzJMnPod+5y9ez2wV3UTwwyLj+XIpb6ScmM4vIDkIlGRf1NBdpiNPaunzminUzBsK8cF6g5RMIIlhQ9H01kW2bMtHfL68o1FHMRqT5q3XPZ/QxoXZkRPLC0hcIIYQXRiIcmqW3YEHKIupiweLOeZDn11ek6AtRfMrbSAxR1B32pDtHdoK1ZEESpdy2cRrvEtnEa7xKPRR1GH6Gjdgysg2z0hiVPDVJmPVsei9X4o2m/EJUGjjrlGka+x4mdqXTZvo6hpQeJbHhezg1hKMPjRJ+exjjkIrVwekl2hFTHCnYhMIOb/AMs9vbImYHXJLA0hoG0QHmFcAXqk/aEqSKu1KQnwzrnxwWKOoaWdXXsFzV5NkCheFDQXSXNk2eaMiELXz5UzhicKdK/RIk1LeAJ+JxKydoa9dPHXxZo2DeOCZscoqEMRwoeD6YQi2rVn98vryjkUcxGz0Nuuez+QjGhdmRE8sLiFwghaxdEK3JqhuP5sQcnzu2gUXd8xg+VZWZS9AapzELVtOxd4/U0O8/KuzCAIB2xClJ0c3vyX4FnBWpPdU4+keEpP9JKNuZdAobhfkW38wRvfSWfBFRSF1D347Eoi+ka5FRRrnAH261c6Tky5xKsSF2ZBkkvKndgFS1inoeD8PSJJtFeXrocV4/s+iZjvNJVRIq7UhCnyhCL/ANcSEWmtGD7W+fPv4CyXPKpKJCyQGjEdiMcgls38cjRx0iYg/EKvkxpUuQrqGQOH+MbRgHk0dfyyeWvgHxq7k5OSg8VIbKE95qf6C8fq97jKqgb+NHhTItqX4GwB3hZOiUeD4hhENPgCELkhj8BGP186xNDXsAtv1XDifHqmWJyHkI8OS1WhFk26qCMIwwVukYRFv4ihJ/zx0VVSIaczuBxWpuiLzxFygScoPrUzYgks38bip/c7BpT9shOTGlS5NlKRCYJD593UrAPEzq/LJx+AfmtXNpyUHipTZS0ybU/0F4+xd4/U0O8/CS9YYIWliQXrEg5x6NJOAEucZBkF4iInlTSUkQAK6idTo3g7zSVkcEFG+InAMrEmPX8BFuHOJqY0+RrU4LuPrPpGZL3R1kSCq1EcR70ZBkm8Y58S12YkCoptJckRgAl/E9I9LeaOzRjKOg8LwVyzFpmyG90F9I0Yhr3q4sS0PYp6XZEeX0aR44k0I5fxgPwwpldWg8+RaB8ytKPYRP2lcmigpGQ/85MY9HmZEeyeSwuWJ6wPm2sRAO0B2qCSeBqFT76Cjo8AgicmQfgLxIXUIgk27Xl5RXbpuKltE/rYqF6RJMXq97jr3er49YTOS/xG0Gj6OKBwd3FyI9I2Yyyc4FRkQk+kk7eRkTjIMk0edcSS7yvH4iJdm5s+iaDQpx9GpJwScrhw6cEtSFKvxrWRdM9OKHitTnJ8PwIHxyEXQhCN2eWCShN2zbNvIkYZrXskI+XKIx2PPCk9q8s5QDCJ+ScZdFGSPR/0SatNSxqBh58RZXtznxfTQnFCmq3LtfimtKB+QOb31r8BEoQQb2H2NrajNFnOTK5DyWp8nz8QyUtnZQFs30Vm+dlHd5pI8cSZkdPYuLjzwlldWqM+RaB8ytKPYQv2lcmigpGQ5MY7HmRUeyeywqVq6GO82F6AcxW3aINJ6Ldq+MZhEmpQUReTIOlC8SfLTPNIq6TPCAFSyin1sWVzqSYuyd4/U0O8+opKSwyYhc8piTpGJHSKTKvOsTBim6bMRZsAkJHwPJDhxy3UTqdIyJeaOuiQV2iCDPu2g+CCPe8PdV9/QvsSLrizRE4zEvolgha2Iv5cRaQaNQ8QCUEhmCGSdF9LzICzdpjWO6dXu8YX6XhEeySSSPFNJC7Mw4pHiohoiizgbe1+jj5KJFMShjCvrSxqWTNjVIKLEYRN9wYxjmmoGjc2gR76ijAF86gxefMVFJA8w+Pk9eYAJcTal9gg48Xq97jQichCEnnoqDoktdlC4QJd6ieN2XulzmMmPjyhrITFg3FN0IgUDHjQv9dYSE5XRNgB+3jKKl1B8Hn18xhQejpHVO6ziqi8ntFjtBElDAW0dbPzlXqqFw23uG7bjhKSvZ1qlSVTVMZihUcs/ekpKX8MfEoxIXejiseKOGtjC0JD2n0cfJPr2xYwuv8AC7JT2YySbosWwBBmshjEMW4ge0EOh0/aNb9zBi9KMw8j0Z8a1UDnisICuJMi/LqDMLtMXYu8fqaHefBVWE5jc4t4wv0NBktS5xSeMPgykvInghkWy/SyXcaOz4ItE2osIWI16nvOTGalQDZtUnCbJy0dsyThKAqPeIJaKJ8U5LEUSYHunTAubOJah/1SIq9G0srQgrP4yJdxZ9J4ErS1HCoMC6ZMRaEVWnnkrLxCRaFO5OSYQxDRNx5559ySPDtI04H7lmL0TMdUA/ROvF0jVhC3xvxLPHg3hDEIGh2ttuDIbURRWlFdUtn8f7zLZ/H+8y2fx/vMtn8f7zLZ/H+840/Fou/HDi/dnVi9XvcZkXRMK4iReoC/VBgIfSTD2ubgTAMMm/Axf7OIRMYD/drVJHJ8Bz2raFvnn4gx48G8IYjA53mp69lqnUJA2lnXVLZ/H+8y2fx/vMtn8f7zLZ/H+8y2fx/vMlbq1rnxTfFn0TG0N92RWLsneP1NDvPTfrPCF8NepQ6MW6UubQqR11zO370k5ilLPP8ACtfB2s4hRSEnuXrEumFTRzF1V8WSOOA4+Wo8gg/IKjiETwQUXbLCazun2jeDH7VPXx+HM5tphe4a/wAVt6riz6VNbGUdzEML7K1tvRDhkmJpVDx8y3gz6z/D4PmCDGQFIT+CEYvV73HmWEKYzCF9sitqroogXViPxMU/JhNFAinJ/XwOngsR/L4P1yDF2TvH6mh3noV73icb8USifXvE2Ac2ivwpl5J3lolBx6b3SLrzE4KbLNyz3onQc4AqElFnEyQigTsdFq3dhzZxLSQfUVtOIO2yrk3wCCOZRCr5iZ5KGkZXzzKOnxqOVdFIon0sfwCgJd+l/wCmQ2N87fs0wzCFuS6a0sihu3qF1LzlEjlrpG++y10jffZa6RvvstdI332Wukb77LXSNd9lrpG++yG+ihyM3fSVDuCjxer3uP1ex2vJWrdrrM4H8u0Y18SNwgyg3Rrmknxw7CBhcvmntMlm1JXtXpNTBIqIz1htdUnoFqqpQSwr2lmpNTGj4IA6tnP9nbY4g6eMUQzCUBLlvORmUN29tFD8Pj2ctdI132Wukb77LXSN99lrpG++y10jffZa6RvvstdI332SH0UMVo7BkyWZ3BR4uxd4/U0O88CTfMOh9nREor2IyWYs4RK+GDuFbPGJJjCLN6J0SGSnWjCBhcvWujr3gs2pK+CCjw3+C05bt1pIeRfsybQvjZwOYtD2KaR4QdkLNpVxSbQybtw1cisijL6RzyL+ssHH1JGTn2d2XOJViT5aZ5pAAR6UouIKPgDe1/8Acir1+OiUHiTaKNqaMkSwX4BOpijEQbQxgLSlOSZEihog8I/+KEf3Y4zhEWGkk/dU4WQwfwtXxvdOjcfbkXesdhGbiDI14PSZMnEWrH6ve4/qDHahRSQ2CsRqBfewWMZ82NJMc57K2nBk4hDyck8D9go/AXJ24GxwjYfOmJr3tB1x8xasRSTCGgU3KFJJifVuC0AN0zpyG7clF0APprTJyu0cu3bglqQs88ou6JNGIYD4YVErwidEWuPmVZRKzY4RQzStuUHnBVx9eRkWgnDU47IoiSL+n4NPyKnZFr8cg8kXODViTIASPi2fJjj7cN6X5yKuRfHRKDRFvEg00eSWcK7tfUXii79tDGItKU5JhyMCmBQjOQ0Z/drjr1LDjXkoi6pwsh4+e0iJsvo3H0Fpk43nHoTW+NsTXg9IiuNfEWrH2LvH6mh3nbhdkFm0YinMUxc2JCJFpph+DbAq9TdoalRy5wiuHKresLwlyTB91Bmr6nN6UrXwTgcxQuGrkc4ShKPoyokX9LgD4i7IVp75WpKwC/Jr4hfq/B5iVGqS6QtKQCzi0yAiyC0YMR2Agi0Q0bU10J4E+6WDPV9EbkicmST4Op3TR0HxiKOfHDXpmLlHaAnmnlNhzHu8SjESdRJz7Rwss+PB4hhxQjxwSyGEGp7xc5fIs+PKHNhtpge+ILuxuiORIyxBVB1/Ixer3uP6gx2pUWojiPSEgyDn5OWVmhDo16SBuic8PIk5QeMa5xkGT4Zp5pAwzjIxD0Y9USj+EUQi45voPClxp8c8nI6HOC+D572zLzHrvlejHQjEfwBOJzZWFOyfF3dSbw+TJQuTodk5bOQz7qVTfw8rHDnpmLlHaAnmnlNhzHu8SjEUdRJxP2jtZZ8cAI5HFVxB0SyGJpqe8WQ2Ts+PKHNBtJ24uRau5gXRXQuWIJCB4uxd4/U0O87EugjPB623rD9I8IOuXNJ5pPMVkpdPxWe8oxP87GO9zqScEMdLp+Cz39CPrYx3WdGnEZFDmGQqzphsM6l2u1LnCVNuwBalIJOTaxUHieA+8HxFyg6CxDBx2nxDpceNuvNuEDJtn6NQYOsNM9N5ejFXJ1JOWti1hdvlW0Eb8hzLXKk6qVY/V73H6vY7Z4OYgli+GbmEH5Ylo8Ma5CFaYWwQPRWAt2Ijzje86kiosiCKDyxkR/ptWAd7NB9K8cloE2FnCrQiQE2uDuCznpBWvux6LpSXY+InaMAII6qcRvEhfpjXqeWjiLTKCiJEMHnIvEi1L42y825Qhe2do1Bg6w070t32Y65OpJw2sWcHtsqGBgVkuZqgl4Tqpx9i7x+pod51XmGV47yLZiHOuyrSMXypeIYZlbgmoc0AcyRC6iU+Yo8TiAPiotS2fStCUHF8mpIK7QLhq5HMYRRE6OdHBXdlNhWFzuwKy+LGPvvo7OsHgSjmKMg5+TIOeWBrmeAE/wCsKll9xKOYOtY6X2jM8N/wlsNL3+UHwXbQgntXrl7/AISw2e6+f2VkBl9xJsATZq3H0YUByc20W8fMd/txrCMs5GJAF5RUtkuFHf5bJMKO/wAkPnz7f7kQwlLaPSGJuoGnj8AEZIbH0TcnTEWVi57Mi6kogBjhC1FovAZF+2tcjYFFCT/9EsobgVUJ7U8Qn/wlhBFtTQ+cvzaFjZ/YKtcoPD20MazK6WcYETUr6+2KOYgiC8VnLA48+DxLT3yamBvJZOuQEo3g8yjpfasyw3/CSsDi9/lB8F20IJ7V45e/4Swzfa+C/wCkEYGRO0BJmATZq3H0YRhos5top6+Y77b15hFtGRAl46uPLZJhR3+WyTCjv8kPXz2YkQcBQEhbR8QxcmBP2fOgLun+Fc4/c2jh411NIpXmZ13j/BW09zfLh5F1NGtP7sr8O3j74S7Mtn0TQdJy/JqScLnIVw5crnMQpV88i/M1LUMTxpkXLE083JOhLUMv+ipcoCnKtC50JKwi5xKv3YGWls9Xa79jE3zwg7rMIH5qVVA2eENjvmH6N4MdcWdTzifuuVFqMgz5QRUS2FQbu8thUG7vLYVBu7y2FQbu8thUG7vLYVBu7y2FQbu8thMF/IlsJgv5EthUG7vLYVBu7y2EwX8iWwqDd3lsKg3d5bCoN3eWwqDd3lsKg3d5bCYL+RLYVBu7y2EwX8iWwmDd3kzwRg7Z00dtyWojBKAFoMgl8f8A9r//AP/EABQRAQAAAAAAAAAAAAAAAAAAALD/2gAIAQIBAT8ADP8A/8QAFBEBAAAAAAAAAAAAAAAAAAAAsP/aAAgBAwEBPwAM/wD/2Q==;fontFamily=Tahoma;labelBorderColor=none;textShadow=0;whiteSpace=wrap;html=1;" vertex="1" parent="1">
          <mxGeometry x="627.5300000000001" y="610" width="79.94" height="60" as="geometry" />
        </mxCell>
        <mxCell id="9tiRhB4PVM25RhnuYTAQ-32" value="&lt;b&gt;(0)&lt;/b&gt;: Load Assets" style="text;strokeColor=none;align=center;fillColor=none;html=1;verticalAlign=middle;rounded=0;fontFamily=Tahoma;labelBackgroundColor=none;labelBorderColor=none;textShadow=0;whiteSpace=wrap;" vertex="1" parent="1">
          <mxGeometry x="720" y="640" width="140" height="30" as="geometry" />
        </mxCell>
        <mxCell id="9tiRhB4PVM25RhnuYTAQ-34" value="User Input" style="text;html=1;align=center;verticalAlign=middle;rounded=0;fontFamily=Tahoma;labelBackgroundColor=none;labelBorderColor=none;textShadow=0;whiteSpace=wrap;" vertex="1" parent="1">
          <mxGeometry x="670" y="770" width="60" height="30" as="geometry" />
        </mxCell>
        <mxCell id="9tiRhB4PVM25RhnuYTAQ-41" style="edgeStyle=orthogonalEdgeStyle;rounded=1;orthogonalLoop=1;jettySize=auto;html=1;exitX=0;exitY=0.75;exitDx=0;exitDy=0;curved=0;entryX=0.994;entryY=0.347;entryDx=0;entryDy=0;entryPerimeter=0;fontFamily=Tahoma;labelBackgroundColor=none;labelBorderColor=none;textShadow=0;flowAnimation=1;" edge="1" parent="1" source="9tiRhB4PVM25RhnuYTAQ-37" target="9tiRhB4PVM25RhnuYTAQ-42">
          <mxGeometry relative="1" as="geometry">
            <mxPoint x="940" y="825" as="targetPoint" />
            <Array as="points">
              <mxPoint x="970" y="750" />
              <mxPoint x="970" y="810" />
              <mxPoint x="939" y="810" />
            </Array>
          </mxGeometry>
        </mxCell>
        <mxCell id="9tiRhB4PVM25RhnuYTAQ-37" value="" style="rounded=1;html=1;fillColor=#bac8d3;strokeColor=#23445d;fontFamily=Tahoma;labelBackgroundColor=none;labelBorderColor=none;textShadow=0;whiteSpace=wrap;" vertex="1" parent="1">
          <mxGeometry x="1130" y="660" width="130" height="120" as="geometry" />
        </mxCell>
        <mxCell id="9tiRhB4PVM25RhnuYTAQ-38" value="" style="shape=image;verticalLabelPosition=bottom;labelBackgroundColor=none;verticalAlign=top;aspect=fixed;imageAspect=0;image=data:image/png,iVBORw0KGgoAAAANSUhEUgAAAN8AAADiCAMAAAD5w+JtAAAAk1BMVEX///80NDP+/v709fbR0dHe39/Y2NiysrIwMC8xMTAtLSwgIB8qKim3t7cmJiUdHRwZGRjt7e3Dw8OXl5fe3t4VFRMnJyUREQ8eHhxnZ2fm5uZOTk3w8PDJycmtra08PDs7OzqJiYmBgYFVVVRDQ0KgoKBxcXCPj45eXl1jY2Kbm5tJSUiEhIR4eHelpaVRUVEAAADy+6hYAAAYsklEQVR4nO2dCZeqONOAiSyyg4iIKO5ba2u////XfVUJyhYWHZWe+brOmTnn3tutPKkktaRSCMKf/Mn/PxF9v9f1M7xPosnYdUcrsevneJNIrk5AguWg6yd5i4iuRqjo064f5S0yDEgibtz1s7xDpuqNT590/SxvkN5SI3dA7XKV/mvbzPmuP0I03Q7d7f4qzbp+qtfJykzxUkjQZPzfgDzc+DTzxw1tU00gAwc1+a+HHNi3xWcr4kDprzamk4Uc6/vdvxnyhxp31XCPiiJJkiIPIsla/RgZSNtxFgD5rzT/J4PiHSV/IN0FIAeKdThmNWkbI3Ny8v5lkL5LH9+eK1JREsjMdIUpbLjk6+RF6Qf0FCmq/vjOZcme3I5LeHlNBo6R1WTwNfQiiDjEg+s647PUNUaVfMPmAo+tLf0KvgzkcKMCpJ5oMjAc/bjWqW+njvtdg/AlHkHYMFGJfilPTx6k7w2/AtcIVGYoVfPm+oz9rlF4Itoa0ffXgNinZr4b5AwhSWgEeur2EHPdNQtPJibRVGmvE8Nrh5dqUvZOEzN17DTSNQtH+rB3hpZ11jTSUn1ZkWe9TQoY/D6vfAB4wdqb60T9eoJPsSbkV+sPHBdtK/UhvDWHj/Ip0vXH0H/1+kPHxfD61kUntvUgXbxa2irR7PA2Qc1D1zhFUcZg1YfAB4vIfozO2htgGFSDXJXtzTk3fpkH3luA1dvE/b4VEHXTfnoqynWDE1N3zxb6L2sEhD8Hq66J8oLPZQJef2cTc9WWT5GGC5yYgbtHl6wHhGBdzDl82PhXeaEx7J3G1QL1rWH5zVvSeWs1wImpngYIhyJMdKLP8H/7rpkyIurguExQfdZRJUa7idn/MiDS10cbT7jRAZ+maedIguFyla6pUkHHhSBev7/UtGkL51M6nW2wJ0F4QYzeHU8Yg+aiaG3Cau6a6i7ouLiUrg/OZ7NzrcTfmo0T0xwOMnDIF7nE/I5k3/5F2eGBQx0XxLNWJrGvDRPTmtg4Md0p7pi9nAiSA78fydHQJuq2a7BENui4sNlpQXBU61wryo46KsE42TELfH2b2H1ZliOY8OHviAITx4XxLTSiVce24KgQtAdGcBiU4ZAPvDtHQr6rAZF912goPnVcLMYHlkvfVy0/cFRMcFR0Z9kXuXTAB95d6MsICCNl77qGSxyXY5yo72CSgB/bgge9cWBimu4E9w0uHfBNVW0rU7FCGLfuo6TvALNJ/YSvKrZVpAN1VGx3FVXCAV5vqambiPJFP+ov8NLiceK4ML6zRgiHzrvY6KiEi2vVxEz4Zi6YF8Yne7AtjztOj4qqRsz9TX19jG2PhempKPOjTSdmzlHh8/lg/oYJ3+ALXNFLt3wZxwUFY9tDjg8cla2BE9NZ+010wOcZJLgmfDLYQjLq1EuzMONypyvHtncPWj/NGuGQD/Zfw0vw5OjSsZc2AMsXfHspH8S2jpJOzP7ESBwVoQ0d8H2D+yPd+GTf6dZL+4Hldo4z+jOJ+qPcJuZuSh0Vd8JzVCr4YP+1oztfdAAv7dwZHjouTqo9iG1h+X0riaPCMirOoc4elPiIpi1SPlmGuMuxOsJT3IzjQtV3i23BUbFNag/m9fagxEejoxQv2tndeWnLjONC8U5bDWLbW0bFHB0b7UERD6OjdVZ/6Gbb107w8KjIjrN0ENKB9aIZFRIYbexBkQ+jo12Or2905KXhUVF4d1z61tBmZz8mTfXZu1b2oMhnGSw6ygBOVWJ3kAxlR0WZ2amlVT3t7UGR7wTmL87xyZ7biZe2B8dFl9LZmS16yWVUHuIDgx4qeb7BsQsvjR0VZfaWyf3wQN8/B4d8m3t0lIoEcdLow8edg/CecUn4tvfpqU+e5ROExT06yqxAcPr0r8/ybcBx2WZm5y5bc2b0ngSk0dG+yCcrsJO5H604yGZcgG4+AR863V5gu3uSTwbzdyjxRasA3L4P4vkjdlTE6MBrgbVn/DD7oME+4wyf218wOrKvJT5Zhs90vc/xbbMZl+EWvt205zMJdxh7cTA0El6eMw+56CijQDAb2vJjeJhxCZJ05/WIeejxdyQrMsQ2wRB8EAhn7aP4BCBWVhpSmU+OwLga8w/hpY6L1b9gjBAelUhRFB+8a2Mgir1oCRZrOXjCfcHsFGd6ytEck6GfuVCBR0Us42IdljA1bd0aKCj+UdWWIsrsBzYEU3kYUFhq2pLHJ0ewP9unj/DdMi7WbooumjMc+Arjm2rauUcBe3sY77H3KGAxOsoI5tLCTxxZ9zFlYFlWfxLA1HQnfqTcBHadL8YnCgeYxKPdP42OUhlsPpMMpTUu315iE7be7E6ngB9lrhI+UZijUV4/FtwqYSE6ykjsfOTIGo+KphKzCcb1NjWpYGpveOMThdiFPW/yiCvDiY4yCty//chaHIgriGm1DbUJ7iWKMnSKP8eTrTuf2PM12EbPsweSL7uAhHEFn6y8+cha2tgjhwZBGh5wTaWBkhP/FEDsJmZkcDaJrsqtAYU1mD+lii8C86of34Z3HWeqp2y9P1MK4sPTOYqYky+DqE7cFpAbHWXknUfW0jil093DQC7iKT4skFEeT+ytMcM+bwcIfh8nOsoocPjGZGh6Z4rYX0pUolMU+UclYa8AKOzQThxabaOCmDk74gKCl2YflHdsooNRWtm3Kk1NxqcSdVPkEwUPttFw3+rsgR8dZfiwrMkMXfJ6TxRzBDf19bl4igLLf1/iE3sSuKj2poW7nT874grL8Wjuy+2En+rP6PtcPM/OmPcsYLQAchI1AlZFR6lIt+JCDDBfKj31Hp6HEl99aJyvHD6QDbjbdqO7XRkd3ednmqMbvzrjy27d4PRclbdOun1eYfQtLp4o7B1wt60GQIyOnLrpqRjpJHp5NH9kH66deXsn8h1MUC2fTxSGLdxtjI4WdXxeyme/fos5uCGeVa75q4+adzeq4BOFPmyjDe62AOZhUqs/5436E4RZjKeNxyq+L7APsyo+sRe7sI1+1bjbQuRURkds+cWp/v73nlDwSyehV8GHzhV/e2GAMmyi5rba3a6NjhDPS1PI9puq672weoKC210271mZnQOia35l5RJuwPNqPMzL3fB+3pWKATOh8/EUnF21fKI4McA2V7nbtdFRFE8T26cb4eh9cfwJYrwdV4FxLrrli/DtVrvbeHZUFR2Baw2rG/UX7K133qcfhESd8vhodDtv4BMhyoIYh+9uV0dHkbTBQ9zjRnt/MQXY4NDi8aF5jxvw0N0OK9xtobfQ1B9u8nNn6EQNT/5CI6N3H7PEDnjRHAX6KzyZbOQTe0qgc91tQRxxo6NIQc/CPksxFjO9/87AUiMBxwP1LxDdVpu/DOBgaxJzWXK3q86OrjAemjv0sXQP3Le38+1gnQ3LCvSPKnGall8iR5vjbnOjo0iZOHhmE8dzPCC2Xx02cGQWEm1b5pOXmjptySdcwN0eFdxtXnQU9U1QnrPy+/Taj6Z+4gQCz0CsEqCvgvPYko+52+O8u43RUZiLjiJ5D5uRSUB5/b6F2Y+PFGpJ6AaXYqTYbjbvGcCyu43j5uYqeyzNhJW39uk5HLq+HzrC3YKjHBf5vOrolic9CdztXHYbo6NtpnJQvjigPNWT5vSgEWzD+EOVrnNMRBQmaDF53QwoL3PutiAY2ego8vDozbn4VlI3a36uBkYEL5IU+ei1jPZ4YtHdLkRH37Dy9MBKlNefI+zHLnRiGn2eB0Tz7soP8bFDwpu7LShpZR1EQuBMOxPlXpUPcZnxuaseygjC3PwO44N1MgeP8d3dbSTMREfRyoDN2J7flNfvf7a8gCazCzsMRreLB5ZfApi62+g30OiIRULGl+Ld8fBSxSfLQ4S+Qczv3AT1t+3NexYQ3W0D3W2c9LaCkVAIkZBxVTKlX6vgnQdHHOmBx6vmFyDsfpfH+cDdhsAu+BGxqRiYh0R5GylVHgj5eH0dvcSYBcSz6cMTfMzd1hfWF+yQmnRC5YU7PwNHrzQF3x/Fw3S9usnsML5lg3P8DJ9Is9uazRpO2jQSyimvPw9gL/10gfIGb2lmzXsAf34OT8SsXJrYHOaUl9zH/lTp0l1gNzczibTa5HWjZPKathfP83wd3cPFmZTRH0a3j5q/u2QP37x+QX1bjYw6uKFzCEiQJtLQvBfPpltLpl8osa0CHhYVfLh2l0oEO8zPnU/earXJ6xrpRYd0epb0N9fAAeikEQW6hPcdxicPRLdZuF48MVLtQYyQ1x8mJYJuOsFgqv5yU6BkPmPee4Pr1sEeDUZybqlnSrqpXMHxtDvqM62DZ3XTH0a3p8f4ej3pYmABokFO8YF2eVN/lDweXifs7I7/Cbuc+Xfz3py8ztGJ86lrsjtYM1mSoyPeFCwsPpqU6KwF88Al2jnhO7VKXqeqU74DA91o/eDP2HVIBWbitrh5fjApwZHJPZGG5t31W6vOOlLVuVNrEN3vsmKAVdhcIKQwO2xyE4e3VL1Pb5W2o5OHJr1OHayVWeaitYKXVPKuCyasjS6vv2vsNiOrvCatJqY3cQLagGIeRVJWlAOGJEXb8KGS6wqB3TugqXr/DOZdaKSLdiTU8UruPhaLLUYUWMLmMMuHCWutSzxh5txS9UajeQdLfjFQdYa6iwacBhywBZvf2QtpU/WzSQmOwJqh1Vq5ymsu3ey6dWmLhi9PlMtwIJ4NLkLKh7bhs0kJjtxS9VateQdzsDZZt6WDzFMdk4CoXxn9LbVf0ON0QXcYTF5XlWahOdiMqDnYWLOoCk6SfJOom/Q2Lyasu2+xyFL1mLwO+ea9Jx9Uag7svDkoiwJ7VGoAMWH9C3rbiLDHLfyq0iw0ByNqDs7zQY3qGB+ag3vCGpMS3dx6zwtN1cucymuMDnYLjA5sYx/ParspMz5sPXIz8Kff0hyMpuojmFrLouqkS4iqC8lOHjTCSczAB6dEfZiw/h3N3c7YbXChqcfs9tmbzc94VSIIv7wWqmNyvRt4mrD+JW/+6BtEnWi5ymvBX5k0OrAPfrU5KEkfDN6aLUBMWP+S7piiSfuVq0exdzcHbmIOBnxLXiExOEF7emsSvfVf0542qYnWTSw+60VDEtIuYGvlAdUxgT1lgnzXgGi/pzt08r4AQsLJIJ6M6Z6yvTaaA45sNe1sJT2Oumppw5H7xR3dMDBZ5E7ih1WHovyoGMFbwy6TEmWR3TS9hy2Qh34rc8Dhm9AIFxPWn21WUC+ZonbYZbxBW3NQ5oOVHMy7TkqUREqL2ol5iGNWe/cMHxh489SHzdj5Ta8sETMX54hp62S72a8P174nJVWGrQHRWT/su05KlGR9uxR0e5mTqpumbRuGdj5O1sNd37uVIjTwWXj7QO86KVEScZlYQHtpuo5hBKau5khtU12gTndzK5aqp6+yC6ir8I6rG/9IxOPYNu3xMRLEgeJZp9XluDXGgApkCSqQ6lSn+nbzdVkNr5ZXnL3KIZkHzu97r6Vy+j4V8sy9SInnp+/JdGG6LlNqolNQahDYdqCej/vvISxUtiX1b/uU8YtsexsRZ35snb7304DqtDR9DZucN/u0fdPvCPyekoEf93ffkx+mUztLmikxcH/ZmxGeEKrT3eqyUUcuVaqedjf6RBH5B2UmS9Z1eMm0b3J/TezwQonubtBvidxfLMNbkchY7vpR3iOXEVoQffwvMw/txduOR8b+F73U4uUy+E/tnH/yJ3/yJ3/yJ3/yJ3/yJ3/yJ3/yJ3/yvPQib3g5bom6/dmv5nF9Njk+ToeN+cr58WdV+phov/1uLICULud99rA6upBj8+H1fLE4VDzUYD4hrhGYqgai6qbtONtV9Sf2xrpqaw3nrfH/dDUsnTlvbNUcN1ze6I1N1RxlHnVra/q4qXJrONI0l3vjMz6O7VuqXFOTN45oZmgcKrQYYd9FfVl/pGUZvKwtvmmOjOuVgS/2zOWz8RhGayic9PCZHM7I+RtXZyeVhmOb258zMRx8MTSIXXG9PqLVE0F9QUANn6bXPmuJD9tTE7P2wpwYaITbi+M6VmmJh/E1jAdMI2JkrZYuPZ81pjwVMj7i1iZla/ganrXER9+LQpy6+6oTfFxO+dqQtvgMp15xsinrENWqq5xllvDV38Oo46sfmjIfe/yar7PwV5xybSz2GwflcRd8hP25iErKc+nGV3vHsoIv6ehbt5o4fPheoprKenwxDO+fZSzzULWqBPIBv8gsn+zc+Ljr+Sb1fJxPTZ+2zCfg+5BIWDVD8R4a793x9I52jdqxcTnnou+dr3bKVPNp9TOUx4d97gCQr4lryP9AhS7busoMbBBdrntjfMvaKVPDp21V/nAnwuWjvXJ1brOiCGchr7zrG8tUa98EiW8sJ27R4WB8UpXFYVLNZ9Oel9Unmlw+gX4d12D9qBUmB61cQ2EN/m6pdIryBQKtXQmrZmg1nxErOOJu1dDw+dhiKY01mACDu4gSN6Th3Htnc7ZJxtfDnlPVM7SGz2PPWjVDK/jwzYOcVov4omh+61MscqyfnqzFd6mLzo2P9scOK25k8PmmSS1W3dBU8dGiYaPYzQ4/SV3wfMUr6qahPxVFKRZP3fjY1KjY1Or56AytWLxVfKxddeHVuHSR8O/rDrGxe8N1ph4+x6gwke58dLpVvKu2no9+ecXireSjX6cusn9Dx6mkUybYAaLxuhbdCQqPQfnoDfyaGdrAx4aGO0Or+SI0dHamUW1vofEMGBPK19Qjh/IVZmDKx6YMt/aoiY8ODddnruYT5k4+vKJlqFW3Ql7BRx+Ya3ab+NjQGJxnq+GjnphGbvtBPKrz2l7CRyvpeWa3kY8NDWfx1vENUGFBsimKGItXO/kv4ROuBucnhDZ89GM4i7eOj77bm4zYJ+zRJ63u0kT5mrpKN/Lhy5F4HY6b+djQlM1LLR+FYt5YFpUnL+KjRXJGqfy9BR8bmtLuV88noqON3vQMY8Kgxn6/iI9tam6xQK4NHxua4uKt5xNi+kgeDe5qm9e+io9uaqUZ2oZPmIecoWngo29aJBrdfmvv9LyMb2BwZmgrPu7QNPH1MPIkuLfUXxh8GR/LbxW6Bbbjo/t9YWia+PD+L5WGvu3t+Xj+WZCd+bgWCiXw7fjYJpiP6hr5hOTWhFFfFPvP9Jfjm2F6Nd+IuyUfTf3lh6aZT6AZ6aZnfyFfYouyamjLNzOLQ9PMZ9HredqyPjZ/JV9ZDW352MlBNqpr5Jsltw8brgy+lA9fsJrbz1rzUY8kOzSNfDTdif/VnxC8lK+khvZ8xaFp4qPpTvOCVrD2hOB19oEKZmAzwXV7PhbmpEPTwEfTneD0VIUfd3kxH3UMUzU8wCegLtKhaeC75USiqsjsJi/mY2q4B9eP8PUwZX/PO9TzUdtH5yXze6tPu1/NR7MF2k0Nj/CxF2HeXrNSy5dNDVPnbsH/OeFV8W1GqGNoJ5/4EB9N+GrJiXcdH9X0zS7MaDBfqaGX8+XU8BgfTYQlM7SOD1dqehTPvIqqyoPX8zE1sPTPY3xs3rHFW8PHjFD6++hVaGbFVH4DH82Wsxn6IB/dN9jQVPNRS5kN2elfVLkxbfK7vfr8bklSNTzKx47O8HGq+ai6tOwXs2Ce78acWuTnZ3RCFL6rho/m3akaHuajB0G4mCr52HLLh+w0w8vv7UDPVxq6WsiV5ytVHXJRDcH6CT6a8MWhqeKjaQK7sF3SPZvvxuD5mNZwL5v7M1z/8yY07w5qeJyP/iMMTRXfD9fcKeMqN4aeb47qy8jwCLuk41o+YWfQRfIEn0wdoFjk8+04p2Mo1KHhvkoB09v17yRljlPxR+r56DgHa+9xPjY0JDJ4fPR0k/uuLnpqxpuHh4BzOJsTGiiXVNzAx5bnXn2cjw6N/kV4fNsqClbFU1yX6YPUNF4REa+8BTXwsbw7vTf8KB/9ZJXHx6oL+Amla1WFAS2aqWnUTwPlckPOJj6ad0cpn+008LHYlcNXXR1y+z5NLe9IollXSoSvtOMe/jbyDYxn+e5DU6g/0yutAP0+pyIbQx1i4l54lRqWhl8VcD60kY+FZk/x3Wq/8nx0otW0qKAJZp6evBHNdY+/lfzjzvrnEP/F3nAwau07E/b2kSf4bkOT47PqS6WEpICS58ZIKs0Fm642uUqRCN6DLM1XU8OgZa8j7vFTs/7Y4dVTfGzR5/honFffd5gVUPImcO8bu63imaEduqPxeOSGtkm3MN3Z8o9nWuhP8MbP8s3YppCtv0a3Oqgv6feqS3yjg+kESV3mXXTbPVY9R/Q/jLpqvw7fPM7jO+uN5eXgcWn5d9nb8HDjpgZUa9jTgqqaPWm4wY4zpo5i2sbI3M9r2iYcnNGosVHudTyyS6Yn1kfjxlYoXjgaZ0++PG00an5Z0GQ8ntY8c0+xTpf95Gt/Oey8xpYQUYt+VyI3tRW1aGQjyoWP99t0L4o675z9J3/yJ/99+T9JazfH3qJqIwAAAABJRU5ErkJggg==;fontFamily=Tahoma;labelBorderColor=none;textShadow=0;whiteSpace=wrap;html=1;" vertex="1" parent="1">
          <mxGeometry x="1165.4" y="670" width="59.2" height="60" as="geometry" />
        </mxCell>
        <mxCell id="9tiRhB4PVM25RhnuYTAQ-40" value="&lt;b&gt;(1)&lt;/b&gt;: Input for Price prediction" style="text;html=1;align=center;verticalAlign=middle;rounded=0;fontFamily=Tahoma;labelBackgroundColor=none;labelBorderColor=none;textShadow=0;whiteSpace=wrap;" vertex="1" parent="1">
          <mxGeometry x="980" y="685" width="110" height="30" as="geometry" />
        </mxCell>
        <mxCell id="9tiRhB4PVM25RhnuYTAQ-42" value="User Interface" style="rounded=1;html=1;fillColor=#f8cecc;strokeColor=#b85450;fontFamily=Tahoma;labelBackgroundColor=none;labelBorderColor=none;textShadow=0;whiteSpace=wrap;" vertex="1" parent="1">
          <mxGeometry x="790" y="790" width="150" height="60" as="geometry" />
        </mxCell>
        <mxCell id="9tiRhB4PVM25RhnuYTAQ-43" value="&lt;b&gt;(2)&lt;/b&gt;: Predicted Price to UI" style="text;html=1;align=center;verticalAlign=middle;rounded=0;fontFamily=Tahoma;labelBackgroundColor=none;labelBorderColor=none;textShadow=0;whiteSpace=wrap;" vertex="1" parent="1">
          <mxGeometry x="1010" y="760" width="80" height="30" as="geometry" />
        </mxCell>
        <mxCell id="9tiRhB4PVM25RhnuYTAQ-59" style="edgeStyle=orthogonalEdgeStyle;rounded=1;orthogonalLoop=1;jettySize=auto;html=1;entryX=1;entryY=0.25;entryDx=0;entryDy=0;curved=0;fontFamily=Tahoma;labelBackgroundColor=none;labelBorderColor=none;textShadow=0;flowAnimation=1;" edge="1" parent="1" source="9tiRhB4PVM25RhnuYTAQ-44" target="9tiRhB4PVM25RhnuYTAQ-53">
          <mxGeometry relative="1" as="geometry">
            <Array as="points">
              <mxPoint x="970" y="855" />
              <mxPoint x="970" y="876" />
            </Array>
          </mxGeometry>
        </mxCell>
        <mxCell id="9tiRhB4PVM25RhnuYTAQ-44" value="" style="rounded=1;html=1;fillColor=#bac8d3;strokeColor=#23445d;fontFamily=Tahoma;labelBackgroundColor=none;labelBorderColor=none;textShadow=0;whiteSpace=wrap;" vertex="1" parent="1">
          <mxGeometry x="1130" y="800" width="130" height="110" as="geometry" />
        </mxCell>
        <mxCell id="9tiRhB4PVM25RhnuYTAQ-45" value="" style="shape=image;verticalLabelPosition=bottom;labelBackgroundColor=none;verticalAlign=top;aspect=fixed;imageAspect=0;image=data:image/png,iVBORw0KGgoAAAANSUhEUgAAAN8AAADiCAMAAAD5w+JtAAAAk1BMVEX///80NDP+/v709fbR0dHe39/Y2NiysrIwMC8xMTAtLSwgIB8qKim3t7cmJiUdHRwZGRjt7e3Dw8OXl5fe3t4VFRMnJyUREQ8eHhxnZ2fm5uZOTk3w8PDJycmtra08PDs7OzqJiYmBgYFVVVRDQ0KgoKBxcXCPj45eXl1jY2Kbm5tJSUiEhIR4eHelpaVRUVEAAADy+6hYAAAYsklEQVR4nO2dCZeqONOAiSyyg4iIKO5ba2u////XfVUJyhYWHZWe+brOmTnn3tutPKkktaRSCMKf/Mn/PxF9v9f1M7xPosnYdUcrsevneJNIrk5AguWg6yd5i4iuRqjo064f5S0yDEgibtz1s7xDpuqNT590/SxvkN5SI3dA7XKV/mvbzPmuP0I03Q7d7f4qzbp+qtfJykzxUkjQZPzfgDzc+DTzxw1tU00gAwc1+a+HHNi3xWcr4kDprzamk4Uc6/vdvxnyhxp31XCPiiJJkiIPIsla/RgZSNtxFgD5rzT/J4PiHSV/IN0FIAeKdThmNWkbI3Ny8v5lkL5LH9+eK1JREsjMdIUpbLjk6+RF6Qf0FCmq/vjOZcme3I5LeHlNBo6R1WTwNfQiiDjEg+s647PUNUaVfMPmAo+tLf0KvgzkcKMCpJ5oMjAc/bjWqW+njvtdg/AlHkHYMFGJfilPTx6k7w2/AtcIVGYoVfPm+oz9rlF4Itoa0ffXgNinZr4b5AwhSWgEeur2EHPdNQtPJibRVGmvE8Nrh5dqUvZOEzN17DTSNQtH+rB3hpZ11jTSUn1ZkWe9TQoY/D6vfAB4wdqb60T9eoJPsSbkV+sPHBdtK/UhvDWHj/Ip0vXH0H/1+kPHxfD61kUntvUgXbxa2irR7PA2Qc1D1zhFUcZg1YfAB4vIfozO2htgGFSDXJXtzTk3fpkH3luA1dvE/b4VEHXTfnoqynWDE1N3zxb6L2sEhD8Hq66J8oLPZQJef2cTc9WWT5GGC5yYgbtHl6wHhGBdzDl82PhXeaEx7J3G1QL1rWH5zVvSeWs1wImpngYIhyJMdKLP8H/7rpkyIurguExQfdZRJUa7idn/MiDS10cbT7jRAZ+maedIguFyla6pUkHHhSBev7/UtGkL51M6nW2wJ0F4QYzeHU8Yg+aiaG3Cau6a6i7ouLiUrg/OZ7NzrcTfmo0T0xwOMnDIF7nE/I5k3/5F2eGBQx0XxLNWJrGvDRPTmtg4Md0p7pi9nAiSA78fydHQJuq2a7BENui4sNlpQXBU61wryo46KsE42TELfH2b2H1ZliOY8OHviAITx4XxLTSiVce24KgQtAdGcBiU4ZAPvDtHQr6rAZF912goPnVcLMYHlkvfVy0/cFRMcFR0Z9kXuXTAB95d6MsICCNl77qGSxyXY5yo72CSgB/bgge9cWBimu4E9w0uHfBNVW0rU7FCGLfuo6TvALNJ/YSvKrZVpAN1VGx3FVXCAV5vqambiPJFP+ov8NLiceK4ML6zRgiHzrvY6KiEi2vVxEz4Zi6YF8Yne7AtjztOj4qqRsz9TX19jG2PhempKPOjTSdmzlHh8/lg/oYJ3+ALXNFLt3wZxwUFY9tDjg8cla2BE9NZ+010wOcZJLgmfDLYQjLq1EuzMONypyvHtncPWj/NGuGQD/Zfw0vw5OjSsZc2AMsXfHspH8S2jpJOzP7ESBwVoQ0d8H2D+yPd+GTf6dZL+4Hldo4z+jOJ+qPcJuZuSh0Vd8JzVCr4YP+1oztfdAAv7dwZHjouTqo9iG1h+X0riaPCMirOoc4elPiIpi1SPlmGuMuxOsJT3IzjQtV3i23BUbFNag/m9fagxEejoxQv2tndeWnLjONC8U5bDWLbW0bFHB0b7UERD6OjdVZ/6Gbb107w8KjIjrN0ENKB9aIZFRIYbexBkQ+jo12Or2905KXhUVF4d1z61tBmZz8mTfXZu1b2oMhnGSw6ygBOVWJ3kAxlR0WZ2amlVT3t7UGR7wTmL87xyZ7biZe2B8dFl9LZmS16yWVUHuIDgx4qeb7BsQsvjR0VZfaWyf3wQN8/B4d8m3t0lIoEcdLow8edg/CecUn4tvfpqU+e5ROExT06yqxAcPr0r8/ybcBx2WZm5y5bc2b0ngSk0dG+yCcrsJO5H604yGZcgG4+AR863V5gu3uSTwbzdyjxRasA3L4P4vkjdlTE6MBrgbVn/DD7oME+4wyf218wOrKvJT5Zhs90vc/xbbMZl+EWvt205zMJdxh7cTA0El6eMw+56CijQDAb2vJjeJhxCZJ05/WIeejxdyQrMsQ2wRB8EAhn7aP4BCBWVhpSmU+OwLga8w/hpY6L1b9gjBAelUhRFB+8a2Mgir1oCRZrOXjCfcHsFGd6ytEck6GfuVCBR0Us42IdljA1bd0aKCj+UdWWIsrsBzYEU3kYUFhq2pLHJ0ewP9unj/DdMi7WbooumjMc+Arjm2rauUcBe3sY77H3KGAxOsoI5tLCTxxZ9zFlYFlWfxLA1HQnfqTcBHadL8YnCgeYxKPdP42OUhlsPpMMpTUu315iE7be7E6ngB9lrhI+UZijUV4/FtwqYSE6ykjsfOTIGo+KphKzCcb1NjWpYGpveOMThdiFPW/yiCvDiY4yCty//chaHIgriGm1DbUJ7iWKMnSKP8eTrTuf2PM12EbPsweSL7uAhHEFn6y8+cha2tgjhwZBGh5wTaWBkhP/FEDsJmZkcDaJrsqtAYU1mD+lii8C86of34Z3HWeqp2y9P1MK4sPTOYqYky+DqE7cFpAbHWXknUfW0jil093DQC7iKT4skFEeT+ytMcM+bwcIfh8nOsoocPjGZGh6Z4rYX0pUolMU+UclYa8AKOzQThxabaOCmDk74gKCl2YflHdsooNRWtm3Kk1NxqcSdVPkEwUPttFw3+rsgR8dZfiwrMkMXfJ6TxRzBDf19bl4igLLf1/iE3sSuKj2poW7nT874grL8Wjuy+2En+rP6PtcPM/OmPcsYLQAchI1AlZFR6lIt+JCDDBfKj31Hp6HEl99aJyvHD6QDbjbdqO7XRkd3ednmqMbvzrjy27d4PRclbdOun1eYfQtLp4o7B1wt60GQIyOnLrpqRjpJHp5NH9kH66deXsn8h1MUC2fTxSGLdxtjI4WdXxeyme/fos5uCGeVa75q4+adzeq4BOFPmyjDe62AOZhUqs/5436E4RZjKeNxyq+L7APsyo+sRe7sI1+1bjbQuRURkds+cWp/v73nlDwSyehV8GHzhV/e2GAMmyi5rba3a6NjhDPS1PI9puq672weoKC210271mZnQOia35l5RJuwPNqPMzL3fB+3pWKATOh8/EUnF21fKI4McA2V7nbtdFRFE8T26cb4eh9cfwJYrwdV4FxLrrli/DtVrvbeHZUFR2Baw2rG/UX7K133qcfhESd8vhodDtv4BMhyoIYh+9uV0dHkbTBQ9zjRnt/MQXY4NDi8aF5jxvw0N0OK9xtobfQ1B9u8nNn6EQNT/5CI6N3H7PEDnjRHAX6KzyZbOQTe0qgc91tQRxxo6NIQc/CPksxFjO9/87AUiMBxwP1LxDdVpu/DOBgaxJzWXK3q86OrjAemjv0sXQP3Le38+1gnQ3LCvSPKnGall8iR5vjbnOjo0iZOHhmE8dzPCC2Xx02cGQWEm1b5pOXmjptySdcwN0eFdxtXnQU9U1QnrPy+/Taj6Z+4gQCz0CsEqCvgvPYko+52+O8u43RUZiLjiJ5D5uRSUB5/b6F2Y+PFGpJ6AaXYqTYbjbvGcCyu43j5uYqeyzNhJW39uk5HLq+HzrC3YKjHBf5vOrolic9CdztXHYbo6NtpnJQvjigPNWT5vSgEWzD+EOVrnNMRBQmaDF53QwoL3PutiAY2ego8vDozbn4VlI3a36uBkYEL5IU+ei1jPZ4YtHdLkRH37Dy9MBKlNefI+zHLnRiGn2eB0Tz7soP8bFDwpu7LShpZR1EQuBMOxPlXpUPcZnxuaseygjC3PwO44N1MgeP8d3dbSTMREfRyoDN2J7flNfvf7a8gCazCzsMRreLB5ZfApi62+g30OiIRULGl+Ld8fBSxSfLQ4S+Qczv3AT1t+3NexYQ3W0D3W2c9LaCkVAIkZBxVTKlX6vgnQdHHOmBx6vmFyDsfpfH+cDdhsAu+BGxqRiYh0R5GylVHgj5eH0dvcSYBcSz6cMTfMzd1hfWF+yQmnRC5YU7PwNHrzQF3x/Fw3S9usnsML5lg3P8DJ9Is9uazRpO2jQSyimvPw9gL/10gfIGb2lmzXsAf34OT8SsXJrYHOaUl9zH/lTp0l1gNzczibTa5HWjZPKathfP83wd3cPFmZTRH0a3j5q/u2QP37x+QX1bjYw6uKFzCEiQJtLQvBfPpltLpl8osa0CHhYVfLh2l0oEO8zPnU/earXJ6xrpRYd0epb0N9fAAeikEQW6hPcdxicPRLdZuF48MVLtQYyQ1x8mJYJuOsFgqv5yU6BkPmPee4Pr1sEeDUZybqlnSrqpXMHxtDvqM62DZ3XTH0a3p8f4ej3pYmABokFO8YF2eVN/lDweXifs7I7/Cbuc+Xfz3py8ztGJ86lrsjtYM1mSoyPeFCwsPpqU6KwF88Al2jnhO7VKXqeqU74DA91o/eDP2HVIBWbitrh5fjApwZHJPZGG5t31W6vOOlLVuVNrEN3vsmKAVdhcIKQwO2xyE4e3VL1Pb5W2o5OHJr1OHayVWeaitYKXVPKuCyasjS6vv2vsNiOrvCatJqY3cQLagGIeRVJWlAOGJEXb8KGS6wqB3TugqXr/DOZdaKSLdiTU8UruPhaLLUYUWMLmMMuHCWutSzxh5txS9UajeQdLfjFQdYa6iwacBhywBZvf2QtpU/WzSQmOwJqh1Vq5ymsu3ey6dWmLhi9PlMtwIJ4NLkLKh7bhs0kJjtxS9VateQdzsDZZt6WDzFMdk4CoXxn9LbVf0ON0QXcYTF5XlWahOdiMqDnYWLOoCk6SfJOom/Q2Lyasu2+xyFL1mLwO+ea9Jx9Uag7svDkoiwJ7VGoAMWH9C3rbiLDHLfyq0iw0ByNqDs7zQY3qGB+ag3vCGpMS3dx6zwtN1cucymuMDnYLjA5sYx/ParspMz5sPXIz8Kff0hyMpuojmFrLouqkS4iqC8lOHjTCSczAB6dEfZiw/h3N3c7YbXChqcfs9tmbzc94VSIIv7wWqmNyvRt4mrD+JW/+6BtEnWi5ymvBX5k0OrAPfrU5KEkfDN6aLUBMWP+S7piiSfuVq0exdzcHbmIOBnxLXiExOEF7emsSvfVf0542qYnWTSw+60VDEtIuYGvlAdUxgT1lgnzXgGi/pzt08r4AQsLJIJ6M6Z6yvTaaA45sNe1sJT2Oumppw5H7xR3dMDBZ5E7ih1WHovyoGMFbwy6TEmWR3TS9hy2Qh34rc8Dhm9AIFxPWn21WUC+ZonbYZbxBW3NQ5oOVHMy7TkqUREqL2ol5iGNWe/cMHxh489SHzdj5Ta8sETMX54hp62S72a8P174nJVWGrQHRWT/su05KlGR9uxR0e5mTqpumbRuGdj5O1sNd37uVIjTwWXj7QO86KVEScZlYQHtpuo5hBKau5khtU12gTndzK5aqp6+yC6ir8I6rG/9IxOPYNu3xMRLEgeJZp9XluDXGgApkCSqQ6lSn+nbzdVkNr5ZXnL3KIZkHzu97r6Vy+j4V8sy9SInnp+/JdGG6LlNqolNQahDYdqCej/vvISxUtiX1b/uU8YtsexsRZ35snb7304DqtDR9DZucN/u0fdPvCPyekoEf93ffkx+mUztLmikxcH/ZmxGeEKrT3eqyUUcuVaqedjf6RBH5B2UmS9Z1eMm0b3J/TezwQonubtBvidxfLMNbkchY7vpR3iOXEVoQffwvMw/txduOR8b+F73U4uUy+E/tnH/yJ3/yJ3/yJ3/yJ3/yJ3/yJ3/yJ3/yvPQib3g5bom6/dmv5nF9Njk+ToeN+cr58WdV+phov/1uLICULud99rA6upBj8+H1fLE4VDzUYD4hrhGYqgai6qbtONtV9Sf2xrpqaw3nrfH/dDUsnTlvbNUcN1ze6I1N1RxlHnVra/q4qXJrONI0l3vjMz6O7VuqXFOTN45oZmgcKrQYYd9FfVl/pGUZvKwtvmmOjOuVgS/2zOWz8RhGayic9PCZHM7I+RtXZyeVhmOb258zMRx8MTSIXXG9PqLVE0F9QUANn6bXPmuJD9tTE7P2wpwYaITbi+M6VmmJh/E1jAdMI2JkrZYuPZ81pjwVMj7i1iZla/ganrXER9+LQpy6+6oTfFxO+dqQtvgMp15xsinrENWqq5xllvDV38Oo46sfmjIfe/yar7PwV5xybSz2GwflcRd8hP25iErKc+nGV3vHsoIv6ehbt5o4fPheoprKenwxDO+fZSzzULWqBPIBv8gsn+zc+Ljr+Sb1fJxPTZ+2zCfg+5BIWDVD8R4a793x9I52jdqxcTnnou+dr3bKVPNp9TOUx4d97gCQr4lryP9AhS7busoMbBBdrntjfMvaKVPDp21V/nAnwuWjvXJ1brOiCGchr7zrG8tUa98EiW8sJ27R4WB8UpXFYVLNZ9Oel9Unmlw+gX4d12D9qBUmB61cQ2EN/m6pdIryBQKtXQmrZmg1nxErOOJu1dDw+dhiKY01mACDu4gSN6Th3Htnc7ZJxtfDnlPVM7SGz2PPWjVDK/jwzYOcVov4omh+61MscqyfnqzFd6mLzo2P9scOK25k8PmmSS1W3dBU8dGiYaPYzQ4/SV3wfMUr6qahPxVFKRZP3fjY1KjY1Or56AytWLxVfKxddeHVuHSR8O/rDrGxe8N1ph4+x6gwke58dLpVvKu2no9+ecXireSjX6cusn9Dx6mkUybYAaLxuhbdCQqPQfnoDfyaGdrAx4aGO0Or+SI0dHamUW1vofEMGBPK19Qjh/IVZmDKx6YMt/aoiY8ODddnruYT5k4+vKJlqFW3Ql7BRx+Ya3ab+NjQGJxnq+GjnphGbvtBPKrz2l7CRyvpeWa3kY8NDWfx1vENUGFBsimKGItXO/kv4ROuBucnhDZ89GM4i7eOj77bm4zYJ+zRJ63u0kT5mrpKN/Lhy5F4HY6b+djQlM1LLR+FYt5YFpUnL+KjRXJGqfy9BR8bmtLuV88noqON3vQMY8Kgxn6/iI9tam6xQK4NHxua4uKt5xNi+kgeDe5qm9e+io9uaqUZ2oZPmIecoWngo29aJBrdfmvv9LyMb2BwZmgrPu7QNPH1MPIkuLfUXxh8GR/LbxW6Bbbjo/t9YWia+PD+L5WGvu3t+Xj+WZCd+bgWCiXw7fjYJpiP6hr5hOTWhFFfFPvP9Jfjm2F6Nd+IuyUfTf3lh6aZT6AZ6aZnfyFfYouyamjLNzOLQ9PMZ9HredqyPjZ/JV9ZDW352MlBNqpr5Jsltw8brgy+lA9fsJrbz1rzUY8kOzSNfDTdif/VnxC8lK+khvZ8xaFp4qPpTvOCVrD2hOB19oEKZmAzwXV7PhbmpEPTwEfTneD0VIUfd3kxH3UMUzU8wCegLtKhaeC75USiqsjsJi/mY2q4B9eP8PUwZX/PO9TzUdtH5yXze6tPu1/NR7MF2k0Nj/CxF2HeXrNSy5dNDVPnbsH/OeFV8W1GqGNoJ5/4EB9N+GrJiXcdH9X0zS7MaDBfqaGX8+XU8BgfTYQlM7SOD1dqehTPvIqqyoPX8zE1sPTPY3xs3rHFW8PHjFD6++hVaGbFVH4DH82Wsxn6IB/dN9jQVPNRS5kN2elfVLkxbfK7vfr8bklSNTzKx47O8HGq+ai6tOwXs2Ce78acWuTnZ3RCFL6rho/m3akaHuajB0G4mCr52HLLh+w0w8vv7UDPVxq6WsiV5ytVHXJRDcH6CT6a8MWhqeKjaQK7sF3SPZvvxuD5mNZwL5v7M1z/8yY07w5qeJyP/iMMTRXfD9fcKeMqN4aeb47qy8jwCLuk41o+YWfQRfIEn0wdoFjk8+04p2Mo1KHhvkoB09v17yRljlPxR+r56DgHa+9xPjY0JDJ4fPR0k/uuLnpqxpuHh4BzOJsTGiiXVNzAx5bnXn2cjw6N/kV4fNsqClbFU1yX6YPUNF4REa+8BTXwsbw7vTf8KB/9ZJXHx6oL+Amla1WFAS2aqWnUTwPlckPOJj6ad0cpn+008LHYlcNXXR1y+z5NLe9IollXSoSvtOMe/jbyDYxn+e5DU6g/0yutAP0+pyIbQx1i4l54lRqWhl8VcD60kY+FZk/x3Wq/8nx0otW0qKAJZp6evBHNdY+/lfzjzvrnEP/F3nAwau07E/b2kSf4bkOT47PqS6WEpICS58ZIKs0Fm642uUqRCN6DLM1XU8OgZa8j7vFTs/7Y4dVTfGzR5/honFffd5gVUPImcO8bu63imaEduqPxeOSGtkm3MN3Z8o9nWuhP8MbP8s3YppCtv0a3Oqgv6feqS3yjg+kESV3mXXTbPVY9R/Q/jLpqvw7fPM7jO+uN5eXgcWn5d9nb8HDjpgZUa9jTgqqaPWm4wY4zpo5i2sbI3M9r2iYcnNGosVHudTyyS6Yn1kfjxlYoXjgaZ0++PG00an5Z0GQ8ntY8c0+xTpf95Gt/Oey8xpYQUYt+VyI3tRW1aGQjyoWP99t0L4o675z9J3/yJ/99+T9JazfH3qJqIwAAAABJRU5ErkJggg==;fontFamily=Tahoma;labelBorderColor=none;textShadow=0;whiteSpace=wrap;html=1;" vertex="1" parent="1">
          <mxGeometry x="1165.4" y="810" width="59.2" height="60" as="geometry" />
        </mxCell>
        <mxCell id="9tiRhB4PVM25RhnuYTAQ-46" value="Prediction ONNX model" style="text;html=1;align=center;verticalAlign=middle;rounded=0;fontFamily=Tahoma;labelBackgroundColor=none;labelBorderColor=none;textShadow=0;whiteSpace=wrap;" vertex="1" parent="1">
          <mxGeometry x="1155" y="740" width="80" height="30" as="geometry" />
        </mxCell>
        <mxCell id="9tiRhB4PVM25RhnuYTAQ-47" value="Pre-processor ONNX" style="text;html=1;align=center;verticalAlign=middle;rounded=0;fontFamily=Tahoma;labelBackgroundColor=none;labelBorderColor=none;textShadow=0;whiteSpace=wrap;" vertex="1" parent="1">
          <mxGeometry x="1155" y="873" width="80" height="30" as="geometry" />
        </mxCell>
        <mxCell id="9tiRhB4PVM25RhnuYTAQ-49" value="&lt;b&gt;(3)&lt;/b&gt;: Input for Pre-processing for Recommendations" style="text;html=1;align=center;verticalAlign=middle;rounded=0;fontFamily=Tahoma;labelBackgroundColor=none;labelBorderColor=none;textShadow=0;whiteSpace=wrap;" vertex="1" parent="1">
          <mxGeometry x="970" y="812" width="160" height="30" as="geometry" />
        </mxCell>
        <mxCell id="9tiRhB4PVM25RhnuYTAQ-50" value="&lt;b&gt;(4)&lt;/b&gt;: processed vector output" style="text;html=1;align=center;verticalAlign=middle;rounded=0;fontFamily=Tahoma;labelBackgroundColor=none;labelBorderColor=none;textShadow=0;whiteSpace=wrap;" vertex="1" parent="1">
          <mxGeometry x="1000" y="858" width="90" height="30" as="geometry" />
        </mxCell>
        <mxCell id="9tiRhB4PVM25RhnuYTAQ-52" style="edgeStyle=orthogonalEdgeStyle;rounded=0;orthogonalLoop=1;jettySize=auto;html=1;exitX=0.5;exitY=1;exitDx=0;exitDy=0;fontFamily=Tahoma;labelBackgroundColor=none;labelBorderColor=none;textShadow=0;" edge="1" parent="1" source="9tiRhB4PVM25RhnuYTAQ-42" target="9tiRhB4PVM25RhnuYTAQ-42">
          <mxGeometry relative="1" as="geometry" />
        </mxCell>
        <mxCell id="9tiRhB4PVM25RhnuYTAQ-57" style="edgeStyle=orthogonalEdgeStyle;rounded=1;orthogonalLoop=1;jettySize=auto;html=1;entryX=0;entryY=0.25;entryDx=0;entryDy=0;exitX=0.999;exitY=0.703;exitDx=0;exitDy=0;exitPerimeter=0;curved=0;fontFamily=Tahoma;labelBackgroundColor=none;labelBorderColor=none;textShadow=0;flowAnimation=1;" edge="1" parent="1" source="9tiRhB4PVM25RhnuYTAQ-53" target="9tiRhB4PVM25RhnuYTAQ-54">
          <mxGeometry relative="1" as="geometry">
            <Array as="points">
              <mxPoint x="1110" y="909" />
              <mxPoint x="1110" y="955" />
            </Array>
          </mxGeometry>
        </mxCell>
        <mxCell id="9tiRhB4PVM25RhnuYTAQ-53" value="JavaScript function for weighing vectors" style="rounded=1;html=1;fillColor=#ffe6cc;strokeColor=#d79b00;fontFamily=Tahoma;labelBackgroundColor=none;labelBorderColor=none;textShadow=0;whiteSpace=wrap;" vertex="1" parent="1">
          <mxGeometry x="790" y="858" width="150" height="72" as="geometry" />
        </mxCell>
        <mxCell id="9tiRhB4PVM25RhnuYTAQ-62" style="edgeStyle=orthogonalEdgeStyle;rounded=0;orthogonalLoop=1;jettySize=auto;html=1;entryX=1;entryY=0.5;entryDx=0;entryDy=0;fontFamily=Tahoma;labelBackgroundColor=none;labelBorderColor=none;textShadow=0;flowAnimation=1;" edge="1" parent="1" source="9tiRhB4PVM25RhnuYTAQ-54" target="9tiRhB4PVM25RhnuYTAQ-60">
          <mxGeometry relative="1" as="geometry" />
        </mxCell>
        <mxCell id="9tiRhB4PVM25RhnuYTAQ-54" value="" style="rounded=1;html=1;fillColor=#bac8d3;strokeColor=#23445d;fontFamily=Tahoma;labelBackgroundColor=none;labelBorderColor=none;textShadow=0;whiteSpace=wrap;" vertex="1" parent="1">
          <mxGeometry x="1130" y="930" width="130" height="100" as="geometry" />
        </mxCell>
        <mxCell id="9tiRhB4PVM25RhnuYTAQ-55" value="" style="shape=image;verticalLabelPosition=bottom;labelBackgroundColor=none;verticalAlign=top;aspect=fixed;imageAspect=0;image=data:image/png,iVBORw0KGgoAAAANSUhEUgAAAN8AAADiCAMAAAD5w+JtAAAAk1BMVEX///80NDP+/v709fbR0dHe39/Y2NiysrIwMC8xMTAtLSwgIB8qKim3t7cmJiUdHRwZGRjt7e3Dw8OXl5fe3t4VFRMnJyUREQ8eHhxnZ2fm5uZOTk3w8PDJycmtra08PDs7OzqJiYmBgYFVVVRDQ0KgoKBxcXCPj45eXl1jY2Kbm5tJSUiEhIR4eHelpaVRUVEAAADy+6hYAAAYsklEQVR4nO2dCZeqONOAiSyyg4iIKO5ba2u////XfVUJyhYWHZWe+brOmTnn3tutPKkktaRSCMKf/Mn/PxF9v9f1M7xPosnYdUcrsevneJNIrk5AguWg6yd5i4iuRqjo064f5S0yDEgibtz1s7xDpuqNT590/SxvkN5SI3dA7XKV/mvbzPmuP0I03Q7d7f4qzbp+qtfJykzxUkjQZPzfgDzc+DTzxw1tU00gAwc1+a+HHNi3xWcr4kDprzamk4Uc6/vdvxnyhxp31XCPiiJJkiIPIsla/RgZSNtxFgD5rzT/J4PiHSV/IN0FIAeKdThmNWkbI3Ny8v5lkL5LH9+eK1JREsjMdIUpbLjk6+RF6Qf0FCmq/vjOZcme3I5LeHlNBo6R1WTwNfQiiDjEg+s647PUNUaVfMPmAo+tLf0KvgzkcKMCpJ5oMjAc/bjWqW+njvtdg/AlHkHYMFGJfilPTx6k7w2/AtcIVGYoVfPm+oz9rlF4Itoa0ffXgNinZr4b5AwhSWgEeur2EHPdNQtPJibRVGmvE8Nrh5dqUvZOEzN17DTSNQtH+rB3hpZ11jTSUn1ZkWe9TQoY/D6vfAB4wdqb60T9eoJPsSbkV+sPHBdtK/UhvDWHj/Ip0vXH0H/1+kPHxfD61kUntvUgXbxa2irR7PA2Qc1D1zhFUcZg1YfAB4vIfozO2htgGFSDXJXtzTk3fpkH3luA1dvE/b4VEHXTfnoqynWDE1N3zxb6L2sEhD8Hq66J8oLPZQJef2cTc9WWT5GGC5yYgbtHl6wHhGBdzDl82PhXeaEx7J3G1QL1rWH5zVvSeWs1wImpngYIhyJMdKLP8H/7rpkyIurguExQfdZRJUa7idn/MiDS10cbT7jRAZ+maedIguFyla6pUkHHhSBev7/UtGkL51M6nW2wJ0F4QYzeHU8Yg+aiaG3Cau6a6i7ouLiUrg/OZ7NzrcTfmo0T0xwOMnDIF7nE/I5k3/5F2eGBQx0XxLNWJrGvDRPTmtg4Md0p7pi9nAiSA78fydHQJuq2a7BENui4sNlpQXBU61wryo46KsE42TELfH2b2H1ZliOY8OHviAITx4XxLTSiVce24KgQtAdGcBiU4ZAPvDtHQr6rAZF912goPnVcLMYHlkvfVy0/cFRMcFR0Z9kXuXTAB95d6MsICCNl77qGSxyXY5yo72CSgB/bgge9cWBimu4E9w0uHfBNVW0rU7FCGLfuo6TvALNJ/YSvKrZVpAN1VGx3FVXCAV5vqambiPJFP+ov8NLiceK4ML6zRgiHzrvY6KiEi2vVxEz4Zi6YF8Yne7AtjztOj4qqRsz9TX19jG2PhempKPOjTSdmzlHh8/lg/oYJ3+ALXNFLt3wZxwUFY9tDjg8cla2BE9NZ+010wOcZJLgmfDLYQjLq1EuzMONypyvHtncPWj/NGuGQD/Zfw0vw5OjSsZc2AMsXfHspH8S2jpJOzP7ESBwVoQ0d8H2D+yPd+GTf6dZL+4Hldo4z+jOJ+qPcJuZuSh0Vd8JzVCr4YP+1oztfdAAv7dwZHjouTqo9iG1h+X0riaPCMirOoc4elPiIpi1SPlmGuMuxOsJT3IzjQtV3i23BUbFNag/m9fagxEejoxQv2tndeWnLjONC8U5bDWLbW0bFHB0b7UERD6OjdVZ/6Gbb107w8KjIjrN0ENKB9aIZFRIYbexBkQ+jo12Or2905KXhUVF4d1z61tBmZz8mTfXZu1b2oMhnGSw6ygBOVWJ3kAxlR0WZ2amlVT3t7UGR7wTmL87xyZ7biZe2B8dFl9LZmS16yWVUHuIDgx4qeb7BsQsvjR0VZfaWyf3wQN8/B4d8m3t0lIoEcdLow8edg/CecUn4tvfpqU+e5ROExT06yqxAcPr0r8/ybcBx2WZm5y5bc2b0ngSk0dG+yCcrsJO5H604yGZcgG4+AR863V5gu3uSTwbzdyjxRasA3L4P4vkjdlTE6MBrgbVn/DD7oME+4wyf218wOrKvJT5Zhs90vc/xbbMZl+EWvt205zMJdxh7cTA0El6eMw+56CijQDAb2vJjeJhxCZJ05/WIeejxdyQrMsQ2wRB8EAhn7aP4BCBWVhpSmU+OwLga8w/hpY6L1b9gjBAelUhRFB+8a2Mgir1oCRZrOXjCfcHsFGd6ytEck6GfuVCBR0Us42IdljA1bd0aKCj+UdWWIsrsBzYEU3kYUFhq2pLHJ0ewP9unj/DdMi7WbooumjMc+Arjm2rauUcBe3sY77H3KGAxOsoI5tLCTxxZ9zFlYFlWfxLA1HQnfqTcBHadL8YnCgeYxKPdP42OUhlsPpMMpTUu315iE7be7E6ngB9lrhI+UZijUV4/FtwqYSE6ykjsfOTIGo+KphKzCcb1NjWpYGpveOMThdiFPW/yiCvDiY4yCty//chaHIgriGm1DbUJ7iWKMnSKP8eTrTuf2PM12EbPsweSL7uAhHEFn6y8+cha2tgjhwZBGh5wTaWBkhP/FEDsJmZkcDaJrsqtAYU1mD+lii8C86of34Z3HWeqp2y9P1MK4sPTOYqYky+DqE7cFpAbHWXknUfW0jil093DQC7iKT4skFEeT+ytMcM+bwcIfh8nOsoocPjGZGh6Z4rYX0pUolMU+UclYa8AKOzQThxabaOCmDk74gKCl2YflHdsooNRWtm3Kk1NxqcSdVPkEwUPttFw3+rsgR8dZfiwrMkMXfJ6TxRzBDf19bl4igLLf1/iE3sSuKj2poW7nT874grL8Wjuy+2En+rP6PtcPM/OmPcsYLQAchI1AlZFR6lIt+JCDDBfKj31Hp6HEl99aJyvHD6QDbjbdqO7XRkd3ednmqMbvzrjy27d4PRclbdOun1eYfQtLp4o7B1wt60GQIyOnLrpqRjpJHp5NH9kH66deXsn8h1MUC2fTxSGLdxtjI4WdXxeyme/fos5uCGeVa75q4+adzeq4BOFPmyjDe62AOZhUqs/5436E4RZjKeNxyq+L7APsyo+sRe7sI1+1bjbQuRURkds+cWp/v73nlDwSyehV8GHzhV/e2GAMmyi5rba3a6NjhDPS1PI9puq672weoKC210271mZnQOia35l5RJuwPNqPMzL3fB+3pWKATOh8/EUnF21fKI4McA2V7nbtdFRFE8T26cb4eh9cfwJYrwdV4FxLrrli/DtVrvbeHZUFR2Baw2rG/UX7K133qcfhESd8vhodDtv4BMhyoIYh+9uV0dHkbTBQ9zjRnt/MQXY4NDi8aF5jxvw0N0OK9xtobfQ1B9u8nNn6EQNT/5CI6N3H7PEDnjRHAX6KzyZbOQTe0qgc91tQRxxo6NIQc/CPksxFjO9/87AUiMBxwP1LxDdVpu/DOBgaxJzWXK3q86OrjAemjv0sXQP3Le38+1gnQ3LCvSPKnGall8iR5vjbnOjo0iZOHhmE8dzPCC2Xx02cGQWEm1b5pOXmjptySdcwN0eFdxtXnQU9U1QnrPy+/Taj6Z+4gQCz0CsEqCvgvPYko+52+O8u43RUZiLjiJ5D5uRSUB5/b6F2Y+PFGpJ6AaXYqTYbjbvGcCyu43j5uYqeyzNhJW39uk5HLq+HzrC3YKjHBf5vOrolic9CdztXHYbo6NtpnJQvjigPNWT5vSgEWzD+EOVrnNMRBQmaDF53QwoL3PutiAY2ego8vDozbn4VlI3a36uBkYEL5IU+ei1jPZ4YtHdLkRH37Dy9MBKlNefI+zHLnRiGn2eB0Tz7soP8bFDwpu7LShpZR1EQuBMOxPlXpUPcZnxuaseygjC3PwO44N1MgeP8d3dbSTMREfRyoDN2J7flNfvf7a8gCazCzsMRreLB5ZfApi62+g30OiIRULGl+Ld8fBSxSfLQ4S+Qczv3AT1t+3NexYQ3W0D3W2c9LaCkVAIkZBxVTKlX6vgnQdHHOmBx6vmFyDsfpfH+cDdhsAu+BGxqRiYh0R5GylVHgj5eH0dvcSYBcSz6cMTfMzd1hfWF+yQmnRC5YU7PwNHrzQF3x/Fw3S9usnsML5lg3P8DJ9Is9uazRpO2jQSyimvPw9gL/10gfIGb2lmzXsAf34OT8SsXJrYHOaUl9zH/lTp0l1gNzczibTa5HWjZPKathfP83wd3cPFmZTRH0a3j5q/u2QP37x+QX1bjYw6uKFzCEiQJtLQvBfPpltLpl8osa0CHhYVfLh2l0oEO8zPnU/earXJ6xrpRYd0epb0N9fAAeikEQW6hPcdxicPRLdZuF48MVLtQYyQ1x8mJYJuOsFgqv5yU6BkPmPee4Pr1sEeDUZybqlnSrqpXMHxtDvqM62DZ3XTH0a3p8f4ej3pYmABokFO8YF2eVN/lDweXifs7I7/Cbuc+Xfz3py8ztGJ86lrsjtYM1mSoyPeFCwsPpqU6KwF88Al2jnhO7VKXqeqU74DA91o/eDP2HVIBWbitrh5fjApwZHJPZGG5t31W6vOOlLVuVNrEN3vsmKAVdhcIKQwO2xyE4e3VL1Pb5W2o5OHJr1OHayVWeaitYKXVPKuCyasjS6vv2vsNiOrvCatJqY3cQLagGIeRVJWlAOGJEXb8KGS6wqB3TugqXr/DOZdaKSLdiTU8UruPhaLLUYUWMLmMMuHCWutSzxh5txS9UajeQdLfjFQdYa6iwacBhywBZvf2QtpU/WzSQmOwJqh1Vq5ymsu3ey6dWmLhi9PlMtwIJ4NLkLKh7bhs0kJjtxS9VateQdzsDZZt6WDzFMdk4CoXxn9LbVf0ON0QXcYTF5XlWahOdiMqDnYWLOoCk6SfJOom/Q2Lyasu2+xyFL1mLwO+ea9Jx9Uag7svDkoiwJ7VGoAMWH9C3rbiLDHLfyq0iw0ByNqDs7zQY3qGB+ag3vCGpMS3dx6zwtN1cucymuMDnYLjA5sYx/ParspMz5sPXIz8Kff0hyMpuojmFrLouqkS4iqC8lOHjTCSczAB6dEfZiw/h3N3c7YbXChqcfs9tmbzc94VSIIv7wWqmNyvRt4mrD+JW/+6BtEnWi5ymvBX5k0OrAPfrU5KEkfDN6aLUBMWP+S7piiSfuVq0exdzcHbmIOBnxLXiExOEF7emsSvfVf0542qYnWTSw+60VDEtIuYGvlAdUxgT1lgnzXgGi/pzt08r4AQsLJIJ6M6Z6yvTaaA45sNe1sJT2Oumppw5H7xR3dMDBZ5E7ih1WHovyoGMFbwy6TEmWR3TS9hy2Qh34rc8Dhm9AIFxPWn21WUC+ZonbYZbxBW3NQ5oOVHMy7TkqUREqL2ol5iGNWe/cMHxh489SHzdj5Ta8sETMX54hp62S72a8P174nJVWGrQHRWT/su05KlGR9uxR0e5mTqpumbRuGdj5O1sNd37uVIjTwWXj7QO86KVEScZlYQHtpuo5hBKau5khtU12gTndzK5aqp6+yC6ir8I6rG/9IxOPYNu3xMRLEgeJZp9XluDXGgApkCSqQ6lSn+nbzdVkNr5ZXnL3KIZkHzu97r6Vy+j4V8sy9SInnp+/JdGG6LlNqolNQahDYdqCej/vvISxUtiX1b/uU8YtsexsRZ35snb7304DqtDR9DZucN/u0fdPvCPyekoEf93ffkx+mUztLmikxcH/ZmxGeEKrT3eqyUUcuVaqedjf6RBH5B2UmS9Z1eMm0b3J/TezwQonubtBvidxfLMNbkchY7vpR3iOXEVoQffwvMw/txduOR8b+F73U4uUy+E/tnH/yJ3/yJ3/yJ3/yJ3/yJ3/yJ3/yJ3/yvPQib3g5bom6/dmv5nF9Njk+ToeN+cr58WdV+phov/1uLICULud99rA6upBj8+H1fLE4VDzUYD4hrhGYqgai6qbtONtV9Sf2xrpqaw3nrfH/dDUsnTlvbNUcN1ze6I1N1RxlHnVra/q4qXJrONI0l3vjMz6O7VuqXFOTN45oZmgcKrQYYd9FfVl/pGUZvKwtvmmOjOuVgS/2zOWz8RhGayic9PCZHM7I+RtXZyeVhmOb258zMRx8MTSIXXG9PqLVE0F9QUANn6bXPmuJD9tTE7P2wpwYaITbi+M6VmmJh/E1jAdMI2JkrZYuPZ81pjwVMj7i1iZla/ganrXER9+LQpy6+6oTfFxO+dqQtvgMp15xsinrENWqq5xllvDV38Oo46sfmjIfe/yar7PwV5xybSz2GwflcRd8hP25iErKc+nGV3vHsoIv6ehbt5o4fPheoprKenwxDO+fZSzzULWqBPIBv8gsn+zc+Ljr+Sb1fJxPTZ+2zCfg+5BIWDVD8R4a793x9I52jdqxcTnnou+dr3bKVPNp9TOUx4d97gCQr4lryP9AhS7busoMbBBdrntjfMvaKVPDp21V/nAnwuWjvXJ1brOiCGchr7zrG8tUa98EiW8sJ27R4WB8UpXFYVLNZ9Oel9Unmlw+gX4d12D9qBUmB61cQ2EN/m6pdIryBQKtXQmrZmg1nxErOOJu1dDw+dhiKY01mACDu4gSN6Th3Htnc7ZJxtfDnlPVM7SGz2PPWjVDK/jwzYOcVov4omh+61MscqyfnqzFd6mLzo2P9scOK25k8PmmSS1W3dBU8dGiYaPYzQ4/SV3wfMUr6qahPxVFKRZP3fjY1KjY1Or56AytWLxVfKxddeHVuHSR8O/rDrGxe8N1ph4+x6gwke58dLpVvKu2no9+ecXireSjX6cusn9Dx6mkUybYAaLxuhbdCQqPQfnoDfyaGdrAx4aGO0Or+SI0dHamUW1vofEMGBPK19Qjh/IVZmDKx6YMt/aoiY8ODddnruYT5k4+vKJlqFW3Ql7BRx+Ya3ab+NjQGJxnq+GjnphGbvtBPKrz2l7CRyvpeWa3kY8NDWfx1vENUGFBsimKGItXO/kv4ROuBucnhDZ89GM4i7eOj77bm4zYJ+zRJ63u0kT5mrpKN/Lhy5F4HY6b+djQlM1LLR+FYt5YFpUnL+KjRXJGqfy9BR8bmtLuV88noqON3vQMY8Kgxn6/iI9tam6xQK4NHxua4uKt5xNi+kgeDe5qm9e+io9uaqUZ2oZPmIecoWngo29aJBrdfmvv9LyMb2BwZmgrPu7QNPH1MPIkuLfUXxh8GR/LbxW6Bbbjo/t9YWia+PD+L5WGvu3t+Xj+WZCd+bgWCiXw7fjYJpiP6hr5hOTWhFFfFPvP9Jfjm2F6Nd+IuyUfTf3lh6aZT6AZ6aZnfyFfYouyamjLNzOLQ9PMZ9HredqyPjZ/JV9ZDW352MlBNqpr5Jsltw8brgy+lA9fsJrbz1rzUY8kOzSNfDTdif/VnxC8lK+khvZ8xaFp4qPpTvOCVrD2hOB19oEKZmAzwXV7PhbmpEPTwEfTneD0VIUfd3kxH3UMUzU8wCegLtKhaeC75USiqsjsJi/mY2q4B9eP8PUwZX/PO9TzUdtH5yXze6tPu1/NR7MF2k0Nj/CxF2HeXrNSy5dNDVPnbsH/OeFV8W1GqGNoJ5/4EB9N+GrJiXcdH9X0zS7MaDBfqaGX8+XU8BgfTYQlM7SOD1dqehTPvIqqyoPX8zE1sPTPY3xs3rHFW8PHjFD6++hVaGbFVH4DH82Wsxn6IB/dN9jQVPNRS5kN2elfVLkxbfK7vfr8bklSNTzKx47O8HGq+ai6tOwXs2Ce78acWuTnZ3RCFL6rho/m3akaHuajB0G4mCr52HLLh+w0w8vv7UDPVxq6WsiV5ytVHXJRDcH6CT6a8MWhqeKjaQK7sF3SPZvvxuD5mNZwL5v7M1z/8yY07w5qeJyP/iMMTRXfD9fcKeMqN4aeb47qy8jwCLuk41o+YWfQRfIEn0wdoFjk8+04p2Mo1KHhvkoB09v17yRljlPxR+r56DgHa+9xPjY0JDJ4fPR0k/uuLnpqxpuHh4BzOJsTGiiXVNzAx5bnXn2cjw6N/kV4fNsqClbFU1yX6YPUNF4REa+8BTXwsbw7vTf8KB/9ZJXHx6oL+Amla1WFAS2aqWnUTwPlckPOJj6ad0cpn+008LHYlcNXXR1y+z5NLe9IollXSoSvtOMe/jbyDYxn+e5DU6g/0yutAP0+pyIbQx1i4l54lRqWhl8VcD60kY+FZk/x3Wq/8nx0otW0qKAJZp6evBHNdY+/lfzjzvrnEP/F3nAwau07E/b2kSf4bkOT47PqS6WEpICS58ZIKs0Fm642uUqRCN6DLM1XU8OgZa8j7vFTs/7Y4dVTfGzR5/honFffd5gVUPImcO8bu63imaEduqPxeOSGtkm3MN3Z8o9nWuhP8MbP8s3YppCtv0a3Oqgv6feqS3yjg+kESV3mXXTbPVY9R/Q/jLpqvw7fPM7jO+uN5eXgcWn5d9nb8HDjpgZUa9jTgqqaPWm4wY4zpo5i2sbI3M9r2iYcnNGosVHudTyyS6Yn1kfjxlYoXjgaZ0++PG00an5Z0GQ8ntY8c0+xTpf95Gt/Oey8xpYQUYt+VyI3tRW1aGQjyoWP99t0L4o675z9J3/yJ/99+T9JazfH3qJqIwAAAABJRU5ErkJggg==;fontFamily=Tahoma;labelBorderColor=none;textShadow=0;whiteSpace=wrap;html=1;" vertex="1" parent="1">
          <mxGeometry x="1170.3300000000002" y="940" width="49.33" height="50" as="geometry" />
        </mxCell>
        <mxCell id="9tiRhB4PVM25RhnuYTAQ-56" value="Nearest Neighbors ONNX model" style="text;html=1;align=center;verticalAlign=middle;rounded=0;fontFamily=Tahoma;labelBackgroundColor=none;labelBorderColor=none;textShadow=0;whiteSpace=wrap;" vertex="1" parent="1">
          <mxGeometry x="1142.5" y="1000" width="105" height="30" as="geometry" />
        </mxCell>
        <mxCell id="9tiRhB4PVM25RhnuYTAQ-58" value="&lt;b&gt;(5)&lt;/b&gt;: Weighted vector input" style="text;html=1;align=center;verticalAlign=middle;rounded=0;fontFamily=Tahoma;labelBackgroundColor=none;labelBorderColor=none;textShadow=0;whiteSpace=wrap;" vertex="1" parent="1">
          <mxGeometry x="1000" y="920" width="80" height="30" as="geometry" />
        </mxCell>
        <mxCell id="9tiRhB4PVM25RhnuYTAQ-65" style="edgeStyle=orthogonalEdgeStyle;rounded=1;orthogonalLoop=1;jettySize=auto;html=1;entryX=0;entryY=0.5;entryDx=0;entryDy=0;curved=0;fontFamily=Tahoma;labelBackgroundColor=none;labelBorderColor=none;textShadow=0;flowAnimation=1;" edge="1" parent="1" source="9tiRhB4PVM25RhnuYTAQ-60" target="9tiRhB4PVM25RhnuYTAQ-42">
          <mxGeometry relative="1" as="geometry">
            <Array as="points">
              <mxPoint x="720" y="1000" />
              <mxPoint x="720" y="820" />
            </Array>
          </mxGeometry>
        </mxCell>
        <mxCell id="9tiRhB4PVM25RhnuYTAQ-60" value="JavaScript function to extract and transform MetaData for given propertyIDs" style="rounded=1;html=1;fillColor=#ffe6cc;strokeColor=#d79b00;fontFamily=Tahoma;labelBackgroundColor=none;labelBorderColor=none;textShadow=0;whiteSpace=wrap;" vertex="1" parent="1">
          <mxGeometry x="790" y="940" width="150" height="80" as="geometry" />
        </mxCell>
        <mxCell id="9tiRhB4PVM25RhnuYTAQ-63" value="&lt;b&gt;(6):&lt;/b&gt; Top 10 recommended propertyIDs" style="text;html=1;align=center;verticalAlign=middle;rounded=0;fontFamily=Tahoma;labelBackgroundColor=none;labelBorderColor=none;textShadow=0;whiteSpace=wrap;" vertex="1" parent="1">
          <mxGeometry x="962.5" y="990" width="155" height="30" as="geometry" />
        </mxCell>
        <mxCell id="9tiRhB4PVM25RhnuYTAQ-66" value="&lt;b&gt;(7)&lt;/b&gt;: Recommended properties&#39; details to UI" style="text;html=1;align=center;verticalAlign=middle;rounded=0;fontFamily=Tahoma;labelBackgroundColor=none;labelBorderColor=none;textShadow=0;whiteSpace=wrap;" vertex="1" parent="1">
          <mxGeometry x="630" y="920" width="90" height="30" as="geometry" />
        </mxCell>
        <mxCell id="9tiRhB4PVM25RhnuYTAQ-67" style="edgeStyle=orthogonalEdgeStyle;rounded=0;orthogonalLoop=1;jettySize=auto;html=1;entryX=0.005;entryY=0.162;entryDx=0;entryDy=0;entryPerimeter=0;fontFamily=Tahoma;labelBackgroundColor=none;labelBorderColor=none;textShadow=0;flowAnimation=1;" edge="1" parent="1" source="9tiRhB4PVM25RhnuYTAQ-11" target="9tiRhB4PVM25RhnuYTAQ-42">
          <mxGeometry relative="1" as="geometry" />
        </mxCell>
        <mxCell id="9tiRhB4PVM25RhnuYTAQ-69" value="" style="rounded=0;whiteSpace=wrap;html=1;fillColor=none;strokeColor=#FFFFFF;" vertex="1" parent="1">
          <mxGeometry x="530" y="580" width="790" height="485" as="geometry" />
        </mxCell>
      </root>
    </mxGraphModel>
  </diagram>
</mxfile>
